<svg xmlns="http://www.w3.org/2000/svg" width="47.578" height="34.499" viewBox="0 0 47.578 34.499">
  <path id="ホーム_妊婦健診" d="M20882.771,15199.055a1,1,0,0,1-1-1v-18a1,1,0,0,1,1-1h5v-13a1,1,0,0,1,1-1h16a1,1,0,0,1,1,1v13h5a1,1,0,0,1,1,1v18a1,1,0,0,1-1,1Zm1-2h26v-16h-5a1,1,0,0,1-1-1v-13h-14v13a1,1,0,0,1-1,1h-5Zm40.822,1.5a2.749,2.749,0,0,1-2.715-2.38l-.684-5.157h-4.512a1.007,1.007,0,0,1-.967-.73,9.564,9.564,0,0,1,.836-7.806,8.7,8.7,0,0,1,2.043-2.316,11.3,11.3,0,0,1,2.957-4.869,5.774,5.774,0,0,1,3.846-1.665,2.693,2.693,0,0,1,2.951,2.658v13.73a1,1,0,0,1-.709.956v4.837a2.744,2.744,0,0,1-2.742,2.742Zm.3-1a1.746,1.746,0,0,0,1.744-1.744v-5.793h0v5.793a1.746,1.746,0,0,1-1.744,1.744h0Zm-.336,0a1.752,1.752,0,0,1-1.25-.567A1.752,1.752,0,0,0,20924.561,15197.558Zm-1.623-20.816a9.253,9.253,0,0,0-2.484,4.224.992.992,0,0,1-.441.641,6.486,6.486,0,0,0-1.775,1.954,7.342,7.342,0,0,0-.771,5.457h4.605a1.009,1.009,0,0,1,.994.872l.8,6.025a.739.739,0,0,0,.73.641h.3a.744.744,0,0,0,.746-.741v-5.793a1,1,0,0,1,.7-.956v-12.774c0-.163,0-.656-.949-.656A3.719,3.719,0,0,0,20922.938,15176.741Zm-.867,13.279h0Zm-2.6-9.261-.146.105c-.066.049-.152.115-.254.2a4.333,4.333,0,0,1,.4-.3.039.039,0,0,1,0-.013Zm.123-.441a10.4,10.4,0,0,1,2.635-4.286A10.231,10.231,0,0,0,20919.594,15180.318Zm-18.828,8.735v-6h6v6Zm2-2h2v-2h-2Zm-9,2v-6h6v6Zm2-2h2v-2h-2Zm-9,2v-6h6v6Zm2-2h2v-2h-2Zm7-8.992v-3h-3v-2h3v-3h2v3h3v2h-3v3Zm25.3-9.366a4.142,4.142,0,1,1,4.145,4.145A4.148,4.148,0,0,1,20921.063,15168.694Zm4.145,3.142a3.142,3.142,0,0,1-3.141-3.142A3.142,3.142,0,0,0,20925.207,15171.836Zm-2.143-3.142a2.14,2.14,0,1,0,2.143-2.138A2.145,2.145,0,0,0,20923.064,15168.694Z" transform="translate(-20881.768 -15164.556)" fill="#fbb6ce"/>
</svg>
