<svg xmlns="http://www.w3.org/2000/svg" width="65.998" height="33.996" viewBox="0 0 65.998 33.996">
  <path id="ホーム_乳幼児検診" d="M20929.148,15205.218a17,17,0,1,1,6.615,1.336A16.957,16.957,0,0,1,20929.148,15205.218Zm-3.992-26.271a15,15,0,1,0,10.607-4.392A14.894,14.894,0,0,0,20925.156,15178.947Zm-37.393,27.606a1,1,0,0,1-1-1v-18a1,1,0,0,1,1-1h5v-13a1,1,0,0,1,1-1h16a1,1,0,0,1,1,1v13h5a1,1,0,0,1,1,1v18a1,1,0,0,1-1,1Zm1-2h26v-16h-5a1,1,0,0,1-1-1v-13h-14v13a1,1,0,0,1-1,1h-5Zm46.994-5a8.714,8.714,0,0,1-7.268-3.886,1,1,0,1,1,1.662-1.109,6.726,6.726,0,0,0,5.605,3h.01a6.716,6.716,0,0,0,5.605-3,1,1,0,0,1,1.668,1.109,8.724,8.724,0,0,1-7.273,3.886Zm-29.994-3v-6h6v6Zm2-2h2v-2h-2Zm-9,2v-6h6v6Zm2-2h2v-2h-2Zm-9,2v-6h6v6Zm2-2h2v-2h-2Zm46-7.5a1.5,1.5,0,1,1,1.5,1.5A1.5,1.5,0,0,1,20939.766,15187.056Zm-11,0a1.5,1.5,0,1,1,1.5,1.5A1.5,1.5,0,0,1,20928.764,15187.056Zm-28-1.493v-3h-3v-2h3v-3h2v3h3v2h-3v3Z" transform="translate(-20886.766 -15172.558)" fill="#fbb6ce"/>
</svg>
