<svg xmlns="http://www.w3.org/2000/svg" width="34.998" height="32" viewBox="0 0 34.998 32">
  <path id="ホーム_身体発育曲線" d="M20891.74,15206.772v-32h2v30h33v2Zm3-4.742a2,2,0,0,1,1.377-1.9,33.4,33.4,0,0,1,3.791-10.435,27.036,27.036,0,0,1,3.783-5.11,2,2,0,0,1,2.813-2.556,24.66,24.66,0,0,1,2.176-1.51,29.539,29.539,0,0,1,14.223-4.109,2,2,0,1,1,.055,2,27.494,27.494,0,0,0-13.227,3.812,22.541,22.541,0,0,0-2.211,1.556,2,2,0,0,1-2,1.989c-.061,0-.121,0-.18-.009a24.9,24.9,0,0,0-3.7,4.935,31.5,31.5,0,0,0-3.562,9.853,2,2,0,1,1-3.34,1.481Z" transform="translate(-20891.74 -15174.772)" fill="#fbb6ce"/>
</svg>
