<svg xmlns="http://www.w3.org/2000/svg" width="24.318" height="34" viewBox="0 0 24.318 34">
  <path id="ホーム_生活習慣病予防" d="M20921.631,8053.058a2.465,2.465,0,0,1-1.23-.329l-.043-.024-.02-.011a2.482,2.482,0,0,1-.891-3.36l5.643-9.806s.006-.008.008-.012c.051-.085.061-.191.074-.565v-.008l-.057-3.651-.131.089c-.025.016-.049.031-.074.045a6.68,6.68,0,0,1-2.3.772l-2.76.392a2.259,2.259,0,0,1-2.518-1.722l-.008-.029a.535.535,0,0,1-.014-.055,2.258,2.258,0,0,1,1.611-2.663l3.2-.875,3.75-3.368a3.412,3.412,0,0,1,1.691-.907,4.065,4.065,0,0,1,1.936-7.864,4.067,4.067,0,0,1,2.025,7.112,4.087,4.087,0,0,1-1.277.737,8.564,8.564,0,0,1,2.205.681l.244.1c.029.012.057.025.086.04l4.15,2.177a6.428,6.428,0,0,1,2.213,1.894l.006.01,2.033,2.84a2.111,2.111,0,0,1-.451,2.919l-.021.017-.016.012a2.123,2.123,0,0,1-2.736-.187s0,0,0,0l-2.926-2.876-1.473-.443-.17,4.75,2.3,6.5,4.01,3.087a2.4,2.4,0,0,1,.936,1.628,2.455,2.455,0,0,1-.5,1.8l-.035.043-.043.05a2.422,2.422,0,0,1-3.246.5l-4.928-3.3a3.975,3.975,0,0,1-.922-.864,1,1,0,0,1-.121-.2l-1.742-3.825-5.445,7.7A2.469,2.469,0,0,1,20921.631,8053.058Zm-.285-2.091.037.021.014.008a.459.459,0,0,0,.234.063.469.469,0,0,0,.385-.2s0,0,0-.007l6.451-9.12a1,1,0,0,1,1.727.163l2.412,5.292a1.906,1.906,0,0,0,.389.347l4.928,3.3,0,0a.417.417,0,0,0,.234.072.426.426,0,0,0,.338-.165c.01-.013.021-.025.031-.037l.033-.039a.444.444,0,0,0,.084-.308.424.424,0,0,0-.16-.29l-.008-.006-4.246-3.27a.993.993,0,0,1-.334-.458l-2.467-6.959a1.034,1.034,0,0,1-.057-.37l.223-6.235a1,1,0,0,1,1.287-.922l2.951.887a.987.987,0,0,1,.414.245l3.1,3.046a.121.121,0,0,0,.086.034.113.113,0,0,0,.064-.02l.018-.014.018-.013a.108.108,0,0,0,.021-.147l-2.031-2.837a4.421,4.421,0,0,0-1.52-1.3l-.006,0-4.109-2.156-.205-.084a5.756,5.756,0,0,0-2.062-.58l-1.143-.032h-.031a1.643,1.643,0,0,0-1.178.428l-.047.044-3.947,3.546a1,1,0,0,1-.4.221l-3.426.937a.26.26,0,0,0-.189.286l.006.018c.006.021.012.042.016.063a.251.251,0,0,0,.248.2.237.237,0,0,0,.037,0l2.76-.392a4.684,4.684,0,0,0,1.576-.52l1.625-1.1a1,1,0,0,1,1.561.813l.084,5.524v.05l0,.033a2.9,2.9,0,0,1-.35,1.512l-5.639,9.8A.474.474,0,0,0,20921.346,8050.966Zm7.525-29.909a2.066,2.066,0,1,0,2.053,2.382,2.063,2.063,0,0,0-1.73-2.357A2.1,2.1,0,0,0,20928.871,8021.057Z" transform="translate(-20917.258 -8019.058)" fill="#fbb6ce"/>
</svg>
