<svg xmlns="http://www.w3.org/2000/svg" width="28.301" height="34.003" viewBox="0 0 28.301 34.003">
  <path id="ホーム_歯科検診" d="M20904.662,15195.96a6.886,6.886,0,0,1-.248-.829,7.273,7.273,0,0,1-.252.829,5.287,5.287,0,0,1-4.834,3.6,4.756,4.756,0,0,1-3.078-1.16c-1.381-1.181-2.184-3.134-2.389-5.8a25.356,25.356,0,0,0-1.527-6.127,34.278,34.278,0,0,1-1.984-8.147,16.1,16.1,0,0,1,.3-5.271,10.521,10.521,0,0,1,1.76-3.844,8.884,8.884,0,0,1,5.826-3.507,13.14,13.14,0,0,1,1.9-.146,13.686,13.686,0,0,1,4.111.677l.053.016.109.032c.047-.011.1-.026.158-.042a13.681,13.681,0,0,1,4.115-.683,13.2,13.2,0,0,1,1.9.146,8.871,8.871,0,0,1,5.822,3.507,10.521,10.521,0,0,1,1.76,3.844,16.046,16.046,0,0,1,.309,5.271,34.658,34.658,0,0,1-1.984,8.147,25.376,25.376,0,0,0-1.533,6.127c-.2,2.667-1,4.62-2.383,5.8a4.752,4.752,0,0,1-3.076,1.16A5.292,5.292,0,0,1,20904.662,15195.96Zm.23-6.069.309.378a7.45,7.45,0,0,1,.9,3.04,11.36,11.36,0,0,0,.441,1.964,3.294,3.294,0,0,0,2.961,2.283,2.79,2.79,0,0,0,1.773-.677c.951-.814,1.533-2.347,1.691-4.437a27.1,27.1,0,0,1,1.627-6.609,32.726,32.726,0,0,0,1.891-7.7c.3-3.187-.283-5.864-1.676-7.733a6.9,6.9,0,0,0-4.52-2.725,10.442,10.442,0,0,0-1.6-.126,11.62,11.62,0,0,0-3.549.6c-.178.053-.336.095-.461.131l-.258.074-.264-.068c-.141-.042-.287-.084-.42-.126l-.047-.011a11.665,11.665,0,0,0-3.549-.6,10.492,10.492,0,0,0-1.605.126,6.882,6.882,0,0,0-4.516,2.725c-1.4,1.869-1.979,4.541-1.68,7.733a32.726,32.726,0,0,0,1.891,7.7,27.139,27.139,0,0,1,1.627,6.609c.156,2.09.746,3.622,1.7,4.437a2.794,2.794,0,0,0,1.775.677,3.3,3.3,0,0,0,2.961-2.283,11.368,11.368,0,0,0,.439-1.964,7.565,7.565,0,0,1,.893-3.04l.3-.378Zm-1.576-15.466a4.123,4.123,0,0,0-1.664-.373,3.435,3.435,0,0,0-.613.058,1.671,1.671,0,0,1-.283.021.964.964,0,0,1-.562-1.812,3,3,0,0,1,1.7-.436,5.936,5.936,0,0,1,1.729.278.8.8,0,0,1,1.512,0,5.944,5.944,0,0,1,1.727-.278,2.982,2.982,0,0,1,1.7.436.964.964,0,0,1-.561,1.812,1.627,1.627,0,0,1-.279-.021,3.589,3.589,0,0,0-.619-.058,4.131,4.131,0,0,0-1.664.373c-.115,1.008-.5,1.6-1.055,1.6S20903.434,15175.433,20903.316,15174.425Z" transform="translate(-20890.264 -15165.553)" fill="#fbb6ce"/>
</svg>
