<svg xmlns="http://www.w3.org/2000/svg" width="34.998" height="32" viewBox="0 0 34.998 32">
  <path id="ホーム_体重グラフ" d="M20891.74,15206.772v-32h2v30h33v2Zm3-4.742a2,2,0,0,1,3.707-1.039,27.132,27.132,0,0,0,12.486-3.767c.555-.343,1.1-.71,1.617-1.1a1.941,1.941,0,0,1-.031-.355,2,2,0,0,1,2-2,1.968,1.968,0,0,1,.625.1,24.832,24.832,0,0,0,3.877-5.121,31.656,31.656,0,0,0,3.664-10.444,2,2,0,1,1,1.977.341,33.454,33.454,0,0,1-3.908,11.1,26.848,26.848,0,0,1-4.277,5.621,2.057,2.057,0,0,1,.039.4,2,2,0,0,1-2.67,1.885q-.9.677-1.863,1.271a29.184,29.184,0,0,1-13.49,4.066,2,2,0,0,1-3.752-.963Z" transform="translate(-20891.74 -15174.772)" fill="#fbb6ce"/>
</svg>
