<svg xmlns="http://www.w3.org/2000/svg" width="35.871" height="34.602" viewBox="0 0 35.871 34.602">
  <path id="ホーム_予防接種" d="M20918.258,8053.354a.8.8,0,0,1-.564-1.366l4.154-4.15-1.094-1.09a.8.8,0,0,1,0-1.133l2.26-2.258-.467-.465a.8.8,0,0,1,0-1.131l2.424-2.424a.8.8,0,0,1,.566-.234h0a.8.8,0,0,1,.566.234l2.521,2.522.344-.344-2.52-2.525a.8.8,0,0,1,0-1.131l1.367-1.367a.8.8,0,0,1,1.131,0l2.527,2.521.346-.346-2.525-2.521a.8.8,0,0,1-.236-.565.809.809,0,0,1,.234-.566l1.373-1.373a.8.8,0,0,1,.566-.234h0a.8.8,0,0,1,.566.235l2.52,2.525.268-.267-2.525-2.521a.8.8,0,0,1-.236-.565.809.809,0,0,1,.234-.566l2.955-2.955a.8.8,0,0,1,1.133,0l6.643,6.642a.8.8,0,0,1,0,1.132l-12.469,12.467a.8.8,0,0,1-.566.234h0a.8.8,0,0,1-.566-.234l-.463-.464-2.258,2.258a.8.8,0,0,1-.566.234h0a.8.8,0,0,1-.566-.235l-1.09-1.094-2.568,2.572a.8.8,0,0,1-.479.229l-2.85.315A.757.757,0,0,1,20918.258,8053.354Zm4.193-7.174,1.094,1.09a.8.8,0,0,1,0,1.133l-3.107,3.1.3-.034,2.936-2.94a.8.8,0,0,1,.566-.234h0a.8.8,0,0,1,.566.235l1.09,1.094,2.258-2.257a.8.8,0,0,1,.566-.234h0a.8.8,0,0,1,.566.234l.463.464,11.338-11.335-5.512-5.51-1.824,1.823,2.525,2.521a.8.8,0,0,1,0,1.131l-1.4,1.4a.8.8,0,0,1-.566.234h0a.8.8,0,0,1-.566-.235l-2.52-2.525-.24.24,2.523,2.521a.8.8,0,0,1,0,1.131l-1.477,1.478a.8.8,0,0,1-1.131,0l-2.527-2.522-.236.237,2.521,2.526a.8.8,0,0,1,.234.566.809.809,0,0,1-.236.566l-1.479,1.473a.8.8,0,0,1-1.131,0l-2.52-2.521-1.293,1.293.467.465a.8.8,0,0,1,0,1.132Zm21.93-9.431a1.368,1.368,0,0,1-.971-.4l-7.678-7.677a1.382,1.382,0,0,1-.006-1.935l.006-.007.773-.773a1.36,1.36,0,0,1,.969-.4,1.376,1.376,0,0,1,.967.394l.008.007,1.479,1.483,3.389-3.388a.8.8,0,0,1,1.131,0l3.586,3.581a.8.8,0,0,1,.236.565.809.809,0,0,1-.234.566l-3.391,3.39,1.477,1.481a1.349,1.349,0,0,1,.408.971,1.363,1.363,0,0,1-.408.97l-.768.769A1.37,1.37,0,0,1,20944.381,8036.75Zm-7.355-9.052,7.355,7.356.449-.449-1.883-1.888a.8.8,0,0,1,0-1.131l3.391-3.388-2.455-2.451-3.389,3.39a.8.8,0,0,1-.566.234h0a.8.8,0,0,1-.566-.235l-1.885-1.89Zm14.418.658a3.34,3.34,0,0,1-2.307-1.04l-4.375-4.374s0,0,0,0a3.564,3.564,0,0,1-1-1.84.036.036,0,0,1,0-.014,2.169,2.169,0,0,1,.541-1.925l0,0,.168-.168a.8.8,0,0,1,1.133,0l7.488,7.488a.8.8,0,0,1,0,1.132l-.168.168A2.08,2.08,0,0,1,20951.443,8028.356Zm-5.549-6.544,4.375,4.374a2.035,2.035,0,0,0,.766.5l-5.639-5.639A2.185,2.185,0,0,0,20945.895,8021.813Z" transform="translate(-20917.457 -8018.753)" fill="#fbb6ce"/>
</svg>
