<svg xmlns="http://www.w3.org/2000/svg" width="16.19" height="20" viewBox="0 0 16.19 20">
  <path id="icon_calendar" d="M8563,5243v-17.748h6.071v-.006c-.007-.069-.011-.14-.011-.211a2.035,2.035,0,1,1,4.069,0,1.743,1.743,0,0,1-.011.215l.594,0h5.478v14.29l-1.3,1.318-.829.842-1.281,1.3Zm1.3-1.3h10.848v-2.8h2.747v-11.23H8564.3Zm6.061-16.667a.8.8,0,0,0,.033.218.736.736,0,0,0,1.407,0,.736.736,0,0,0-.7-.954A.738.738,0,0,0,8570.358,5225.035Zm1.688,15.125v-1.337h1.315v1.337Zm-3.219,0v-1.337h1.315v1.337Zm-3.221,0v-1.337h1.315v1.337Zm9.658-3.13v-1.335h1.317v1.335Zm-3.219,0v-1.335h1.315v1.335Zm-3.219,0v-1.335h1.315v1.335Zm-3.221,0v-1.335h1.315v1.335Zm9.658-3.128v-1.335h1.317v1.335Zm-3.219,0v-1.335h1.315v1.335Zm-3.219,0v-1.335h1.315v1.335Zm-3.221,0v-1.335h1.315v1.335Zm9.658-3.165V5229.4h1.317v1.337Zm-3.219,0V5229.4h1.315v1.337Zm-3.219,0V5229.4h1.315v1.337Zm-3.221,0V5229.4h1.315v1.337Z" transform="translate(-8563 -5223)" fill="rgba(0,0,0,0.92)" opacity="0.8"/>
</svg>
