<svg id="icon_胎児" xmlns="http://www.w3.org/2000/svg" width="39.998" height="39.998" viewBox="0 0 39.998 39.998">
  <path id="合体_43" data-name="合体 43" d="M19658,16711a20,20,0,1,1,20,20A20,20,0,0,1,19658,16711Zm7.268-12.729a17.921,17.921,0,1,0,2.152-1.844,3.807,3.807,0,0,0,2.174,1.68c.824.084,1.705-.762,2.555-1.572a7.5,7.5,0,0,1,2.266-1.691,2.835,2.835,0,0,1,3.158.836,3.049,3.049,0,0,1,1.063,2.492c-.174,1.428-1.611,2.324-2.877,3.109a13.082,13.082,0,0,0-1.379.939c-.391.33-.445.514-.455.559a.721.721,0,0,0,.213.436,1.885,1.885,0,0,0,1.131.8c.629.061,1.434-.613,2.211-1.266a7.053,7.053,0,0,1,2.189-1.424c.727-.232,2.15-.32,3.51,1.691a9.058,9.058,0,0,1,.494.838l2.893-2.133a3.256,3.256,0,0,1,4.088-.006,3.3,3.3,0,0,1,.045,5.1l-.584.5.2.113.148.09a15.041,15.041,0,0,1,1.918,1.27,5.24,5.24,0,0,1,2.176,3.98c.068,1.9-.871,4.049-2.883,6.555a7.18,7.18,0,0,1-4.9,2.838,6.515,6.515,0,0,1-4.775-1.395,6.175,6.175,0,0,1-1.889-2.609l-.979-2c-.3-.391-1.676-2.225-2.033-2.66a2.9,2.9,0,0,1-.266-3.746,2.748,2.748,0,0,1,3.846-.426c.029.02.055.045.088.07.2.162.51.434.852.75a3.232,3.232,0,0,1-.846-2.258,3.892,3.892,0,0,1,1.268-2.822c-.439-.924-1.18-2.023-1.768-1.836a5.837,5.837,0,0,0-1.512,1.049,5.645,5.645,0,0,1-3.406,1.734,2.711,2.711,0,0,1-.281-.014,3.726,3.726,0,0,1-2.492-1.537,2.5,2.5,0,0,1-.633-2.023c.217-1.289,1.508-2.09,2.748-2.861.758-.471,1.895-1.178,1.949-1.656.023-.193-.158-.5-.5-.85-.668-.684-.969-.678-2.615.9-1.068,1.023-2.4,2.3-4.143,2.115a5.423,5.423,0,0,1-3.52-2.4C19665.67,16697.883,19665.469,16698.074,19665.271,16698.273Zm13.131,12.738c-.348.436.1,1.049.246,1.227.43.523,2.076,2.709,2.146,2.8.033.055.068.1.1.164l1.039,2.125a1.023,1.023,0,0,1,.045.094,4.149,4.149,0,0,0,1.289,1.795,4.509,4.509,0,0,0,3.3.963,5.293,5.293,0,0,0,3.555-2.1c1.67-2.088,2.49-3.848,2.441-5.227a3.334,3.334,0,0,0-1.434-2.506,13.656,13.656,0,0,0-1.676-1.1l-.152-.094a5.132,5.132,0,0,0-1.3-.523.963.963,0,0,1-.43-.2.987.987,0,0,1-.336-.52,1.007,1.007,0,0,1,.313-1.014l1.844-1.6a.057.057,0,0,1,.02-.016,1.3,1.3,0,0,0,.172-1.818.947.947,0,0,0-.187-.187,1.24,1.24,0,0,0-1.576.01c-.016.01-.029.023-.045.033l-4.414,3.248a1.91,1.91,0,0,0-.588,1.34,1.261,1.261,0,0,0,.391.965c.82.75,2.07,1.779,2.086,1.789a.992.992,0,0,1,.359.688.978.978,0,0,1-.236.736l-1.4,1.631a.993.993,0,0,1-.717.342,1.007,1.007,0,0,1-.742-.281c-.637-.629-2.422-2.354-3-2.824-.016-.01-.029-.023-.045-.033a.829.829,0,0,0-.506-.182A.706.706,0,0,0,19678.4,16711.012Zm4.75.594.045-.049c-.316-.268-.687-.59-1.033-.9C19682.51,16710.986,19682.855,16711.324,19683.152,16711.605Zm-13.738,13.3-.029-.025a6.621,6.621,0,0,1-.965-9.229,6.462,6.462,0,0,1,9.137-1l.029.023a6.618,6.618,0,0,1,.959,9.23,6.433,6.433,0,0,1-4.371,2.4,6.634,6.634,0,0,1-.709.039A6.414,6.414,0,0,1,19669.414,16724.908Zm3.594-9.67a4.456,4.456,0,0,0-3.025,1.666,4.616,4.616,0,0,0,.668,6.432l.02.016a4.478,4.478,0,0,0,6.318-.687,4.623,4.623,0,0,0-.668-6.437l-.02-.014a4.433,4.433,0,0,0-2.8-1A4.72,4.72,0,0,0,19673.008,16715.238Z" transform="translate(-19658.004 -16691)" fill="#f687b3"/>
</svg>
