<svg id="icon_こども" xmlns="http://www.w3.org/2000/svg" width="40.004" height="39.998" viewBox="0 0 40.004 39.998">
  <path id="合体_20" data-name="合体 20" d="M19872,7490a20,20,0,1,1,20,20A20,20,0,0,1,19872,7490Zm7.271-12.728A18.006,18.006,0,1,0,19892,7472,17.886,17.886,0,0,0,19879.27,7477.272Zm12.719,24.977a10.652,10.652,0,0,1-8.875-4.748,1,1,0,1,1,1.664-1.109,8.686,8.686,0,0,0,14.441,0,1,1,0,1,1,1.664,1.109,10.649,10.649,0,0,1-8.875,4.748Zm5.012-15.372a1.874,1.874,0,1,1,1.875,1.874A1.876,1.876,0,0,1,19897,7486.877Zm-13.752,0a1.876,1.876,0,1,1,1.879,1.874A1.879,1.879,0,0,1,19883.248,7486.877Z" transform="translate(-19871.998 -7470.001)" fill="#f687b3"/>
</svg>
