<svg id="lh_fight" xmlns="http://www.w3.org/2000/svg" width="83.688" height="30.042" viewBox="0 0 83.688 30.042">
  <g id="icon__" data-name="icon_×" transform="translate(27)" opacity="0.2">
    <path id="合体_14" data-name="合体 14" d="M25.163,30.255l-9.9-9.9-9.9,9.9a3,3,0,0,1-4.243-4.243l9.9-9.9-9.9-9.9A3,3,0,0,1,5.364,1.971l9.9,9.9,9.9-9.9a3,3,0,1,1,4.243,4.243l-9.9,9.9,9.9,9.9a3,3,0,1,1-4.243,4.243Z" transform="translate(-0.243 -1.092)" fill="#909"/>
  </g>
  <path id="ログイン" d="M-36.336-9.808a20.18,20.18,0,0,1,2.768,5.456.62.62,0,0,0,.608.5,1.15,1.15,0,0,0,.3-.064.573.573,0,0,0,.4-.576.906.906,0,0,0-.048-.288,19.9,19.9,0,0,0-2.88-5.7.7.7,0,0,0-.576-.288.729.729,0,0,0-.352.1.622.622,0,0,0-.336.544A.489.489,0,0,0-36.336-9.808Zm-6.208.3c-1.04.08-2.368.24-3.328.384a.591.591,0,0,0-.544.592A.352.352,0,0,0-46.4-8.4a.54.54,0,0,0,.544.512.443.443,0,0,0,.144-.016c.912-.128,2.048-.288,2.864-.352-.208.784-.48,1.552-.736,2.3A27.667,27.667,0,0,1-46.128-.56a.839.839,0,0,0-.128.416.65.65,0,0,0,.352.56.761.761,0,0,0,.368.112.714.714,0,0,0,.592-.4,29.342,29.342,0,0,0,2.592-5.68c.32-.928.608-1.872.864-2.8.4-.032.832-.064,1.376-.064,1.5,0,1.968.592,1.968,2.368a15.624,15.624,0,0,1-.464,3.84C-38.9-1.184-39.312-.9-39.984-.9a4.134,4.134,0,0,1-1.7-.4.857.857,0,0,0-.416-.112.548.548,0,0,0-.512.352.728.728,0,0,0-.08.32.68.68,0,0,0,.352.592,5.03,5.03,0,0,0,2.32.576,2.531,2.531,0,0,0,2.64-2.144,16.171,16.171,0,0,0,.56-4.272c0-2.5-.96-3.616-3.152-3.616-.384,0-.768.016-1.232.032.208-.88.416-1.824.544-2.736v-.144c0-.3-.192-.5-.56-.544-.064,0-.112-.016-.16-.016a.555.555,0,0,0-.608.56C-42.128-11.472-42.3-10.48-42.544-9.5Zm7.2-3.008a.59.59,0,0,0,.16.384,10.545,10.545,0,0,1,1.264,1.744.426.426,0,0,0,.416.272.49.49,0,0,0,.528-.448.812.812,0,0,0-.112-.416,9.929,9.929,0,0,0-1.376-1.792.524.524,0,0,0-.416-.176A.47.47,0,0,0-35.344-12.512Zm1.76-1.04a.492.492,0,0,0,.192.416,9.711,9.711,0,0,1,1.2,1.7.45.45,0,0,0,.416.256.491.491,0,0,0,.5-.448.863.863,0,0,0-.1-.4,9.392,9.392,0,0,0-1.312-1.744.6.6,0,0,0-.432-.192A.482.482,0,0,0-33.584-13.552Zm6.256,8.432a12.554,12.554,0,0,0,.672-1.456c.688-1.744,1.44-3.568,2.224-5.52a.889.889,0,0,0,.064-.336.547.547,0,0,0-.432-.56.906.906,0,0,0-.288-.048.638.638,0,0,0-.608.464c-1.488,3.744-3.12,8.112-4.544,12.1a.836.836,0,0,0-.064.336.6.6,0,0,0,.48.608.888.888,0,0,0,.272.048c.272,0,.464-.16.608-.512A20.565,20.565,0,0,1-27.1-3.968a3.771,3.771,0,0,1,2.9-1.968.826.826,0,0,1,.864.56,6.57,6.57,0,0,1,.272,2.256c.048,1.6.288,2.336.688,2.8a2.432,2.432,0,0,0,1.952.736,2.985,2.985,0,0,0,2.5-1.184,7.191,7.191,0,0,0,1.36-3.52.544.544,0,0,0,.016-.16A.618.618,0,0,0-17.1-5.1a.544.544,0,0,0-.16-.016.613.613,0,0,0-.624.576,6.736,6.736,0,0,1-.976,2.784,1.768,1.768,0,0,1-1.472.784,1.33,1.33,0,0,1-1.056-.416c-.208-.288-.32-.8-.368-2.24a5.523,5.523,0,0,0-.48-2.7,1.714,1.714,0,0,0-1.6-.864,4.31,4.31,0,0,0-3.376,2.112ZM-12.3-12.672a.984.984,0,0,0-.208-.016.644.644,0,0,0-.656.56,31.886,31.886,0,0,0-.944,7.3,22.74,22.74,0,0,0,.5,4.976c.08.4.3.608.64.608a.912.912,0,0,0,.208-.016.571.571,0,0,0,.5-.624A1.763,1.763,0,0,0-12.3-.176a23.294,23.294,0,0,1-.48-4.672,30.15,30.15,0,0,1,.928-6.992.985.985,0,0,0,.048-.288A.538.538,0,0,0-12.3-12.672Zm2.368,3.056a.547.547,0,0,0-.576.608.573.573,0,0,0,.592.656c.544.016,1.1.032,1.664.032.96,0,1.936-.032,2.816-.08.016.912.048,1.744.1,2.512.032.528.08,1.168.128,1.7A6.984,6.984,0,0,0-7.2-4.48c-1.9,0-3.1,1.04-3.1,2.464C-10.3-.416-9.024.56-7.056.56c2.016,0,3.168-.8,3.168-2.5A4.2,4.2,0,0,0-3.9-2.368,8.937,8.937,0,0,1-2.064-.784.648.648,0,0,0-1.6-.576a.656.656,0,0,0,.48-.208.736.736,0,0,0,.192-.48.7.7,0,0,0-.208-.512A10.24,10.24,0,0,0-3.92-3.76c-.048-.688-.128-1.5-.176-2.112-.064-.8-.08-1.664-.1-2.608A24.3,24.3,0,0,0-1.68-8.8a.551.551,0,0,0,.48-.592c0-.048-.016-.1-.016-.144a.537.537,0,0,0-.56-.512c-.032,0-.08.016-.128.016-.736.128-1.536.208-2.32.288v-2.384a.591.591,0,0,0-.672-.608.553.553,0,0,0-.608.624c0,.816.016,1.648.032,2.448-.88.064-1.776.08-2.64.08-.608,0-1.216-.016-1.792-.032Zm4.8,6.688c.016.192.032.3.032.448,0,1.3-.528,1.84-2.064,1.84-1.168,0-1.9-.544-1.9-1.36S-8.336-3.36-7.2-3.36A5.025,5.025,0,0,1-5.136-2.928Zm1.808-9.936a11.317,11.317,0,0,1,.72,1.888.421.421,0,0,0,.416.336.461.461,0,0,0,.512-.416,1.445,1.445,0,0,0-.064-.448,10.6,10.6,0,0,0-.72-1.808.535.535,0,0,0-.5-.288.424.424,0,0,0-.464.4A.815.815,0,0,0-3.328-12.864Zm1.856-.5A9.351,9.351,0,0,1-.784-11.6c.08.288.192.416.432.416a.429.429,0,0,0,.48-.448A1.208,1.208,0,0,0,.08-12a9.281,9.281,0,0,0-.736-1.776.465.465,0,0,0-.448-.256.411.411,0,0,0-.432.384A.587.587,0,0,0-1.472-13.36ZM5.92-6.448A15.706,15.706,0,0,0,7.584-7.536a36.7,36.7,0,0,0,3.9-3.264.982.982,0,0,0,.336-.72.8.8,0,0,0-.1-.384.928.928,0,0,0-.864-.4h-.128c-1.008.08-2.208.128-3.408.16-1.168.032-2.384.032-3.488.032H3.808a.582.582,0,0,0-.592.656.6.6,0,0,0,.64.608h.528c1.92,0,4.048-.08,5.568-.224a65,65,0,0,1-8.144,6.32.658.658,0,0,0-.336.576.623.623,0,0,0,.112.368.671.671,0,0,0,.56.3.865.865,0,0,0,.448-.144A18.425,18.425,0,0,1,5.616-5.3a9.841,9.841,0,0,1,3.84-.8c2.032,0,3.248.88,3.248,2.416,0,1.664-1.76,2.848-4.848,2.848A11.419,11.419,0,0,1,4.72-1.264,1.255,1.255,0,0,0,4.5-1.3a.62.62,0,0,0-.64.512.779.779,0,0,0-.016.192.708.708,0,0,0,.528.656A13.206,13.206,0,0,0,7.936.5c3.888,0,6.144-1.6,6.144-4.144,0-2.144-1.568-3.568-4.4-3.568a8.784,8.784,0,0,0-3.712.864ZM20.3-9.568c-1.04.08-2.368.24-3.328.384a.591.591,0,0,0-.544.592.312.312,0,0,0,.016.128.54.54,0,0,0,.544.512.443.443,0,0,0,.144-.016C18.048-8.1,19.184-8.256,20-8.32c-.208.784-.48,1.552-.736,2.3A27.667,27.667,0,0,1,16.72-.624a.738.738,0,0,0-.128.416.65.65,0,0,0,.352.56A.61.61,0,0,0,17.3.464a.686.686,0,0,0,.608-.4A29.342,29.342,0,0,0,20.5-5.616c.32-.928.608-1.872.864-2.8.4-.032.832-.064,1.376-.064,1.5,0,1.968.592,1.968,2.368a15.624,15.624,0,0,1-.464,3.84c-.288,1.024-.7,1.312-1.376,1.312a4.134,4.134,0,0,1-1.7-.4.857.857,0,0,0-.416-.112.548.548,0,0,0-.512.352.562.562,0,0,0-.08.32.68.68,0,0,0,.352.592,5.03,5.03,0,0,0,2.32.576,2.531,2.531,0,0,0,2.64-2.144,16.17,16.17,0,0,0,.56-4.272c0-2.5-.96-3.616-3.152-3.616-.384,0-.768.016-1.232.032.208-.88.4-1.824.528-2.736a.443.443,0,0,0,.016-.144c0-.32-.208-.512-.576-.544a.443.443,0,0,0-.144-.016.555.555,0,0,0-.608.56C20.72-11.536,20.544-10.544,20.3-9.568Zm10.24,4.72a19.585,19.585,0,0,0-3.072-5.936.752.752,0,0,0-.576-.288.672.672,0,0,0-.336.1.626.626,0,0,0-.352.544.489.489,0,0,0,.112.32,19.559,19.559,0,0,1,2.96,5.7.632.632,0,0,0,.608.5.693.693,0,0,0,.3-.064.56.56,0,0,0,.4-.576A.985.985,0,0,0,30.544-4.848Zm4.984,1.36c0,.368.3.544.64.544a.582.582,0,0,0,.64-.544l.224-8.192c.016-.448-.336-.736-.848-.736-.528,0-.88.288-.88.736Zm.64,1.52a1.058,1.058,0,0,0-1.1,1.1,1.058,1.058,0,0,0,1.1,1.1,1.076,1.076,0,0,0,1.1-1.1A1.076,1.076,0,0,0,36.168-1.968Z" transform="translate(46.416 21)" fill="#909"/>
</svg>
