<svg id="lh_icon_fish" xmlns="http://www.w3.org/2000/svg" width="40" height="30" viewBox="0 0 40 30">
  <rect id="長方形_226" data-name="長方形 226" width="40" height="30" fill="none" opacity="0"/>
  <path id="パス_241" data-name="パス 241" d="M12.27,18.231h-.04a16.559,16.559,0,0,1-9.065-3.772A22.158,22.158,0,0,1-.37,11.031a.6.6,0,0,1,0-.753L.758,8.865-.366,7.454a.6.6,0,0,1,0-.753A22.156,22.156,0,0,1,3.165,3.273,16.556,16.556,0,0,1,12.23-.5a.648.648,0,0,1,.632.373A21.893,21.893,0,0,1,14.3,7.166h1.124V3.589a1.466,1.466,0,0,1,2.931,0V7.166h1.323V2.886a1.466,1.466,0,0,1,2.931,0v4.28h1.323V3.589a1.466,1.466,0,0,1,2.931,0V7.166h1.323V4.293a1.466,1.466,0,0,1,2.931,0V7.166h1.026l.078,0c.165-.188.371-.452.6-.744,1.173-1.5,3.135-4.016,5.924-4.505a.661.661,0,0,1,.55.152.611.611,0,0,1,.208.514l-.561,6.281.561,6.281a.611.611,0,0,1-.208.514.661.661,0,0,1-.55.152c-2.788-.489-4.751-3-5.924-4.507-.227-.291-.433-.555-.6-.743l-.079,0H31.114v2.873a1.466,1.466,0,0,1-2.931,0V10.565H26.86v3.576a1.466,1.466,0,0,1-2.931,0V10.565H22.606v4.28a1.466,1.466,0,0,1-2.931,0v-4.28H18.352v3.576a1.466,1.466,0,0,1-2.931,0V10.565H14.3a21.893,21.893,0,0,1-1.435,7.292A.646.646,0,0,1,12.27,18.231ZM.967,10.647A22.449,22.449,0,0,0,4,13.511a15.806,15.806,0,0,0,7.834,3.438,23.668,23.668,0,0,0,1.2-7.027.635.635,0,0,1,.645-.6h2.389a.634.634,0,0,1,.645.622v4.2a.175.175,0,0,0,.35,0v-4.2a.634.634,0,0,1,.645-.622H20.32a.634.634,0,0,1,.645.622v4.9a.175.175,0,0,0,.35,0v-4.9a.634.634,0,0,1,.645-.622h2.614a.634.634,0,0,1,.645.622v4.2a.175.175,0,0,0,.35,0v-4.2a.634.634,0,0,1,.645-.622h2.613a.634.634,0,0,1,.645.622v3.5a.175.175,0,0,0,.35,0v-3.5a.634.634,0,0,1,.645-.622h1.671a.5.5,0,0,0,.13-.023.663.663,0,0,1,.615.136,9.016,9.016,0,0,1,.961,1.123c.986,1.263,2.412,3.09,4.286,3.8l-.486-5.437a.6.6,0,0,1,0-.107l.486-5.437c-1.874.709-3.3,2.535-4.285,3.8A9,9,0,0,1,32.884,8.3a.663.663,0,0,1-.615.136.484.484,0,0,0-.129-.022H30.469a.634.634,0,0,1-.645-.622v-3.5a.175.175,0,0,0-.35,0v3.5a.634.634,0,0,1-.645.622H26.215a.634.634,0,0,1-.645-.622v-4.2a.175.175,0,0,0-.35,0v4.2a.634.634,0,0,1-.645.622H21.961a.634.634,0,0,1-.645-.622v-4.9a.175.175,0,0,0-.35,0v4.9a.634.634,0,0,1-.645.622H17.707a.634.634,0,0,1-.645-.622v-4.2a.175.175,0,0,0-.35,0v4.2a.634.634,0,0,1-.645.622H13.678a.635.635,0,0,1-.645-.6,23.667,23.667,0,0,0-1.2-7.027C6.351,1.341,2.111,5.773.967,7.084l1.116,1.4a.605.605,0,0,1,0,.758ZM7.68,8.5A1.89,1.89,0,0,1,5.759,6.649a1.923,1.923,0,0,1,3.843,0A1.89,1.89,0,0,1,7.68,8.5Zm0-2.462a.609.609,0,1,0,.631.609A.621.621,0,0,0,7.68,6.04Z" transform="translate(0.5 6.159)" fill="#fbb6ce"/>
</svg>
