<svg id="lh_icon_vegetable" xmlns="http://www.w3.org/2000/svg" width="30" height="30" viewBox="0 0 30 30">
  <rect id="長方形_223" data-name="長方形 223" width="30" height="30" fill="none" opacity="0"/>
  <path id="合体_23" data-name="合体 23" d="M17672.777,9240.346a6.455,6.455,0,0,1-1.715-5.433,8.04,8.04,0,0,1,1.506-3.613,11.619,11.619,0,0,1,3.666-3.189c.451-.258,1.021-.558,1.619-.877l.055-.029c2.063-1.093,4.879-2.585,6.371-4.133a4.24,4.24,0,0,0,1.025.119,9.243,9.243,0,0,0,1.33-.116,5.11,5.11,0,0,0,1.484,2.6,1.275,1.275,0,0,0,.8.343c.09.007.18.007.277.007a5.332,5.332,0,0,0,2.609-.721,4.642,4.642,0,0,0,1.342,1.518h.006l-.006,0c-.8,2.578-2.932,9.428-7.764,12.956a12.649,12.649,0,0,1-7.293,2.851A7.271,7.271,0,0,1,17672.777,9240.346Zm13.867-5.1a.01.01,0,0,0,0,.007.016.016,0,0,1-.008.013,12.972,12.972,0,0,1-2.232,2.246,12.317,12.317,0,0,1-6.389,2.672.418.418,0,0,0-.367.448.406.406,0,0,0,.406.368h.041a13.1,13.1,0,0,0,6.814-2.849,13.318,13.318,0,0,0,2.406-2.428.425.425,0,0,0,.068-.307.405.405,0,0,0-.162-.266.412.412,0,0,0-.238-.077A.419.419,0,0,0,17686.645,9235.244Zm8.457-8.43a5.792,5.792,0,0,1-2.969-2.812,4.786,4.786,0,0,1-2.93,1.133c-.076,0-.148,0-.227-.007a.414.414,0,0,1-.252-.11,4.7,4.7,0,0,1-1.381-3.048,3.793,3.793,0,0,1-1.486.262,8.891,8.891,0,0,1-2.574-.444.42.42,0,0,1-.279-.349.4.4,0,0,1,.205-.39,11.553,11.553,0,0,0,2.254-2.539,4.218,4.218,0,0,1,3.836-1.562c.809,0,1.279-.018,1.457-.349l.674-1.581a.406.406,0,0,1,.227-.223.439.439,0,0,1,.152-.028.412.412,0,0,1,.162.033l2.111.9a.408.408,0,0,1,.215.539l-.68,1.6c-.121.291.209.667.76,1.256.807.863,1.918,2.05,1.547,3.879a8.756,8.756,0,0,0-.273,3.342.4.4,0,0,1-.381.534A.449.449,0,0,1,17695.1,9226.814Zm-2.58-3.992a.4.4,0,0,1,.273.361,3.646,3.646,0,0,0,1.982,2.538,13.859,13.859,0,0,1,.344-2.913c.287-1.412-.578-2.338-1.344-3.156-.613-.657-1.25-1.338-.912-2.135l.52-1.224-1.361-.579-.516,1.224a.053.053,0,0,0-.014.026c-.418.8-1.32.8-2.191.8-2.281,0-2.76.655-3.18,1.227a18.333,18.333,0,0,1-1.854,2.219,7.375,7.375,0,0,0,1.588.2,2.233,2.233,0,0,0,1.592-.478.413.413,0,0,1,.463-.077.422.422,0,0,1,.234.405,4.34,4.34,0,0,0,1.027,3.047h.029a4.392,4.392,0,0,0,2.879-1.375.408.408,0,0,1,.3-.138A.425.425,0,0,1,17692.521,9222.822Z" transform="translate(-17668.996 -9213.769)" fill="#fbb6ce"/>
</svg>
