<svg id="lh_icon_fruit" xmlns="http://www.w3.org/2000/svg" width="30" height="30" viewBox="0 0 30 30">
  <path id="パス_349" data-name="パス 349" d="M0,0H30V30H0Z" fill="rgba(255,255,255,0)" opacity="0"/>
  <path id="合体_24" data-name="合体 24" d="M9.3,27.94a7.848,7.848,0,0,1-3.613-1.349,12.418,12.418,0,0,1-2.807-3.018A15.479,15.479,0,0,1,0,14.917C-.041,12.027.911,9.024,3.358,7.3a7.433,7.433,0,0,1,4.3-1.291,11.831,11.831,0,0,1,2.368.259c.521.11,1.037.3,1.562.392a21.835,21.835,0,0,1,.249-3.743c.091-.646.091-1.912,1.035-1.871,1.142.044.683,1.422.587,2.089A19.572,19.572,0,0,0,13.236,6.7c2.175-.6,4.472-1.04,6.676-.265a7.379,7.379,0,0,1,4.353,4.332c.01.029.024.055.03.08,0-.005,0-.01,0-.017,1.837,4.791-.1,10.462-3.32,14.172a8.268,8.268,0,0,1-5.493,2.96,5.482,5.482,0,0,1-1.831-.092c-.352-.077-.869-.366-1.231-.3-.486.081-.942.285-1.428.366a5.282,5.282,0,0,1-.859.069A5.767,5.767,0,0,1,9.3,27.94ZM4.619,11.658A2.082,2.082,0,1,0,6.7,9.572,2.082,2.082,0,0,0,4.619,11.658Zm19.645-.892c.008.019.018.042.026.063Zm-.018-.048a.458.458,0,0,1,.018.048A.385.385,0,0,0,24.246,10.718Zm-.026-.065c.01.021.018.044.026.065A.545.545,0,0,0,24.22,10.653Zm0-.009a.015.015,0,0,1,0,.009A.015.015,0,0,0,24.218,10.644Zm-.034-.092c.008.027.02.057.034.092A.821.821,0,0,1,24.183,10.552Zm0,0s0,0,0,0S24.181,10.55,24.181,10.548Zm-.01-.024c0,.007.006.016.01.024C24.177,10.539,24.175,10.53,24.171,10.523Zm-.006-.009a.012.012,0,0,0,.006.009A.012.012,0,0,1,24.165,10.514Zm-.014-.038c0,.011.01.024.014.038C24.161,10.5,24.155,10.488,24.151,10.476Zm-.008-.023a.079.079,0,0,1,.008.023A.079.079,0,0,0,24.143,10.452Zm0,0v0Zm-.008-.016a.021.021,0,0,0,.008.016A.021.021,0,0,1,24.135,10.432Zm-.008-.018s0,.01.008.018C24.131,10.425,24.129,10.418,24.127,10.414Zm0,0v0Zm0,0h0Zm0,0v0Zm0,0S24.125,10.4,24.127,10.406ZM6.815,3.548A4.278,4.278,0,0,1,5.594.689L5.567.4l.261-.13A3.26,3.26,0,0,1,7.218,0a4.155,4.155,0,0,1,2.959,1.151,3.3,3.3,0,0,1,.887,2.469l-.012.263-.243.1a4.559,4.559,0,0,1-1.77.371A3.232,3.232,0,0,1,6.815,3.548ZM6.461.925a3.3,3.3,0,0,0,.913,2.008,2.431,2.431,0,0,0,1.665.592,3.7,3.7,0,0,0,1.189-.2A2.373,2.373,0,0,0,9.582,1.73a3.335,3.335,0,0,0-2.364-.9A3.019,3.019,0,0,0,6.461.925Z" transform="translate(2.499 1)" fill="#fbb6ce"/>
</svg>
