<svg id="lh_icon_sweet" xmlns="http://www.w3.org/2000/svg" width="30" height="30" viewBox="0 0 30 30">
  <rect id="長方形_249" data-name="長方形 249" width="30" height="30" fill="rgba(255,255,255,0)" opacity="0"/>
  <path id="合体_44" data-name="合体 44" d="M2852.891-6819a1.882,1.882,0,0,1-1.125-.367,1.9,1.9,0,0,1-.766-1.516v-1.281l5.074-1.562a1.618,1.618,0,0,1-.539-.266l-.418-.328,1.391-1.789-5.508,1.7v-3.75l26.992-8.3v3.75l-4.535,1.391a1.749,1.749,0,0,1,.8,1.766,1.489,1.489,0,0,1-.078.266l3.816-1.172v2.438a1.9,1.9,0,0,1-1.332,1.813l-23.219,7.133a1.859,1.859,0,0,1-.551.078Zm-.836-2.383v.5a.825.825,0,0,0,.34.664.806.806,0,0,0,.5.164.868.868,0,0,0,.246-.031l23.211-7.141a.83.83,0,0,0,.586-.8v-1.008Zm6.813-3.844a1.518,1.518,0,0,1-.379.758l2.512-.773a1.827,1.827,0,0,1-.34-.2l-.414-.32,1.531-1.969-3.359,1.031A1.647,1.647,0,0,1,2858.867-6825.227Zm-6.812-2.156v1.539l24.879-7.648v-1.547Zm11.941.711a1.429,1.429,0,0,1-.242.586l2.207-.68a.836.836,0,0,1-.172-.117l-.418-.32,1.664-2.141-3.59,1.1A1.66,1.66,0,0,1,2864-6826.672Zm5.129-1.437a1.315,1.315,0,0,1-.148.414l1.969-.6c-.008-.008-.02-.016-.027-.023l-.418-.328,1.8-2.312-3.848,1.18A1.722,1.722,0,0,1,2869.125-6828.109Zm-17.961-1.492a1.164,1.164,0,0,1,.184-1.43l9.5-9.3.191.953c.414,2.055,1.953,3.055,4.7,3.055a5.308,5.308,0,0,0,3.648-1.078,4.148,4.148,0,0,0,1.164-3.219v-.789l6.691,2.547a1.174,1.174,0,0,1,.75,1.133,1.157,1.157,0,0,1-.82,1.07l-24.66,7.578a1.022,1.022,0,0,1-.344.055A1.163,1.163,0,0,1,2851.164-6829.6Zm.922-.672a.113.113,0,0,0-.016.133.1.1,0,0,0,.09.055c.016,0,.023-.008.031-.008l24.66-7.578a.117.117,0,0,0,.082-.1.129.129,0,0,0-.074-.109l-5.293-2.016c-.27,3.031-2.273,4.625-5.836,4.625a6.859,6.859,0,0,1-3.852-.961,4.282,4.282,0,0,1-1.625-2.047Zm10.621-6.953a3.735,3.735,0,0,1-1.562-3.406,7.347,7.347,0,0,1,1.539-4.43,4.272,4.272,0,0,1,3.047-1.937,4.286,4.286,0,0,1,3.051,1.938,7.368,7.368,0,0,1,1.535,4.43,3.726,3.726,0,0,1-1.562,3.406,5.651,5.651,0,0,1-3.023.672A5.666,5.666,0,0,1,2862.707-6837.227Z" transform="translate(-2849.999 6848)" fill="#fbb6ce"/>
</svg>
