<svg id="lh_icon_juice" xmlns="http://www.w3.org/2000/svg" width="30" height="30" viewBox="0 0 30 30">
  <rect id="長方形_248" data-name="長方形 248" width="30" height="30" fill="rgba(255,255,255,0)" opacity="0"/>
  <path id="合体_40" data-name="合体 40" d="M17616.275,9206.954l-.045-.429-2.23-23.472.945-.1,2.188,23.05h12.455l2.379-23.05.945.1-2.482,23.9Zm2.586-2.971-1.2-15.559h.266l2.424-.015,1.7.015.457-.007-.65-6.007-7.549-2.556.311-.9,8.125,2.763.045.3.666,6.4,5.7-.008v.015h0l-.119,1.61-1.033,13.948Zm6-4.314c0,.54.311.99.725.99.385,0,.709-.45.709-.99s-.324-1-.709-1C17625.17,9198.665,17624.859,9199.123,17624.859,9199.669Zm-3.842-3.6c0,.739.43,1.337.961,1.337s.961-.6.961-1.337-.43-1.337-.961-1.337S17621.018,9195.333,17621.018,9196.071Zm3-4.484c0,.976.592,1.773,1.271,1.773.709,0,1.285-.8,1.285-1.773s-.576-1.766-1.285-1.766C17624.609,9189.821,17624.018,9190.611,17624.018,9191.587Z" transform="translate(-17608 -9177.954)" fill="#fbb6ce"/>
</svg>
