<svg id="lh_icon_cigarettes" xmlns="http://www.w3.org/2000/svg" width="30" height="30" viewBox="0 0 30 30">
  <rect id="長方形_251" data-name="長方形 251" width="30" height="30" fill="rgba(255,255,255,0)" opacity="0"/>
  <path id="合体_33" data-name="合体 33" d="M6.988,20.433a.459.459,0,0,1-.458-.459V14.667a.455.455,0,0,1,.458-.456H27.024a.975.975,0,0,1,.976.972v4.274a.979.979,0,0,1-.976.976Zm.456-.919h19.58a.057.057,0,0,0,.058-.057V15.183a.06.06,0,0,0-.058-.057H7.444Zm-4.067.919a.829.829,0,0,1-.824-.829V15.037a.825.825,0,0,1,.824-.826H5.518a.455.455,0,0,1,.455.456v5.306a.458.458,0,0,1-.455.459Zm-.824-8.5H2.478l-.152-.012A1.047,1.047,0,0,1,2.2,11.9l-.154-.032a.683.683,0,0,1-.12-.032L1.8,11.791a2.684,2.684,0,0,1-.619-.32L1,11.333c-.021-.018-.041-.034-.062-.05l-.109-.109a1.188,1.188,0,0,1-.106-.11l-.157-.191-.156-.228C.4,10.621.383,10.588.366,10.56l-.041-.078c-.029-.049-.051-.1-.077-.15l-.077-.207A3.018,3.018,0,0,1,0,9.164a3.142,3.142,0,0,1,.162-.959L.244,8c.029-.062.051-.109.08-.159l.041-.078C.383,7.73.4,7.7.414,7.672l.138-.208L.6,7.409l.121-.148c.041-.044.077-.08.109-.114l.106-.106A.538.538,0,0,1,1,6.989l.161-.13a.265.265,0,0,0-.034-.032L1,6.729.942,6.68.832,6.57C.8,6.534.76,6.5.726,6.461L.569,6.269l-.1-.142L.426,6.058c-.029-.044-.043-.073-.06-.1L.325,5.879C.3,5.83.273,5.777.248,5.729L.171,5.522A3.042,3.042,0,0,1,0,4.558,3.157,3.157,0,0,1,.162,3.6l.082-.207c.029-.061.051-.11.08-.159l.041-.082C.383,3.127.4,3.1.414,3.069l.138-.207L.6,2.805l.121-.151C.76,2.61.8,2.577.832,2.541l.1-.1C.962,2.415.983,2.4,1,2.381l.157-.125A2.842,2.842,0,0,1,1.8,1.923l.13-.044c.041-.013.082-.021.123-.032l.157-.033A1,1,0,0,1,2.323,1.8l.142-.008a.721.721,0,0,1,.089,0,.274.274,0,0,1,.06,0c.058,0,.123.008.176.012a1.008,1.008,0,0,1,.191.045.659.659,0,0,1,.142.061.385.385,0,0,1,.231.345.4.4,0,0,1-.191.338.819.819,0,0,1-.125.072l-.05.026a.147.147,0,0,0-.05.024c-.051.025-.1.05-.152.073L2.61,2.87l-.145.085-.026.013-.089.061a2.052,2.052,0,0,0-.311.264l-.092.1-.073.1a.1.1,0,0,0-.032.04l-.08.126-.077.146s-.055.122-.063.144-.022.079-.038.125a2.006,2.006,0,0,0-.072.489,2.058,2.058,0,0,0,.075.491.95.95,0,0,1,.039.126s.05.1.05.1l-.219.132.1-.037.133-.057.073.134.08.13c.007.013.106.138.106.138l.106.114a2.447,2.447,0,0,0,.294.244l.089.062a.338.338,0,0,1,.029.02l.12.069.188.1c.067.025.115.05.159.07a.2.2,0,0,0,.056.029l.053.023a.787.787,0,0,1,.118.074.4.4,0,0,1,.195.333.407.407,0,0,1-.195.337.638.638,0,0,1-.121.073l-.05.025a.328.328,0,0,0-.05.024c-.051.029-.106.049-.152.073l-.173.085-.178.1-.085.056a2.966,2.966,0,0,0-.311.265l-.089.1-.077.1a.137.137,0,0,0-.032.041l-.08.126-.077.146s-.055.126-.063.143a1.2,1.2,0,0,1-.038.126,2.043,2.043,0,0,0-.072.488,2.078,2.078,0,0,0,.075.492,1.2,1.2,0,0,1,.039.126s.05.105.05.105l-.219.126.1-.032.133-.061.073.138.08.126c.007.012.106.138.106.138l.026.025.08.089a2.118,2.118,0,0,0,.294.244l.089.064a.071.071,0,0,1,.029.017l.12.069c.043.021.188.1.188.1A1.09,1.09,0,0,1,2.931,11l.056.028.053.024a.731.731,0,0,1,.121.069.418.418,0,0,1,.191.338.39.39,0,0,1-.231.35.67.67,0,0,1-.142.056.905.905,0,0,1-.2.044,1.445,1.445,0,0,1-.179.016Zm3.4-1.785c-.062,0-.126-.008-.179-.015a.909.909,0,0,1-.191-.04,1.339,1.339,0,0,1-.142-.062.389.389,0,0,1-.232-.349.41.41,0,0,1,.2-.338.78.78,0,0,1,.123-.069l.048-.024a.319.319,0,0,0,.048-.025c.053-.028.106-.049.154-.073l.176-.085.171-.1L6.212,8.9a2.523,2.523,0,0,0,.313-.26l.087-.1.075-.1A.176.176,0,0,0,6.721,8.4L6.8,8.275l.075-.148s.053-.125.063-.141a.772.772,0,0,1,.039-.131,2.05,2.05,0,0,0,.07-.484,2.039,2.039,0,0,0-.075-.492.834.834,0,0,1-.039-.126c-.005,0-.05-.106-.05-.106L7.1,6.522l-.1.032-.133.062L6.8,6.478l-.082-.131c-.009-.009-.109-.138-.109-.138l-.021-.021L6.51,6.1a2.157,2.157,0,0,0-.294-.241l-.092-.066L5.973,5.7c-.036-.021-.185-.095-.185-.095a1.525,1.525,0,0,1-.156-.072L5.575,5.5l-.053-.023A.628.628,0,0,1,5.4,5.407.387.387,0,0,1,5.4,4.736a.808.808,0,0,1,.118-.073l.053-.021.048-.023a1.261,1.261,0,0,1,.154-.074s.161-.081.176-.085c0,0,.161-.1.171-.1L6.212,4.3a2.294,2.294,0,0,0,.313-.26l.087-.1.075-.1a.258.258,0,0,0,.034-.044L6.8,3.671l.075-.145s.053-.127.063-.147a.838.838,0,0,1,.039-.126,2.058,2.058,0,0,0,.07-.485,2.039,2.039,0,0,0-.075-.491,1.106,1.106,0,0,1-.039-.126c-.005-.009-.05-.106-.05-.106l.217-.13-.1.036-.133.057L6.8,1.874l-.082-.131c-.009-.008-.1-.126-.1-.126L6.51,1.492a2.615,2.615,0,0,0-.294-.244l-.089-.061L5.973,1.1C5.937,1.076,5.788,1,5.788,1,5.729.975,5.676.955,5.633.931A.6.6,0,0,0,5.575.9L5.522.878C5.476.853,5.436.829,5.4.808a.408.408,0,0,1-.2-.338A.393.393,0,0,1,5.44.122.959.959,0,0,1,5.582.061a1.091,1.091,0,0,1,.2-.044A1.754,1.754,0,0,1,5.961,0a.2.2,0,0,1,.05,0,.481.481,0,0,1,.068,0l.162.013c.036,0,.077.009.118.015l.156.032c.038.009.08.017.116.029l.133.048a2.52,2.52,0,0,1,.62.323L7.559.6c.021.016.041.032.06.048l.115.11c.032.032.07.069.1.106l.159.191.1.146.056.085c.014.026.032.053.05.082l.039.081a1.456,1.456,0,0,1,.073.151l.08.2a3.082,3.082,0,0,1,.173.967,3.028,3.028,0,0,1-.164.956l-.08.208c-.029.065-.056.115-.082.162L8.2,4.172l-.05.085-.138.208-.046.056-.126.151a.732.732,0,0,1-.109.114l-.1.1a.6.6,0,0,1-.065.057s-.161.121-.164.13.017.013.032.029l.132.1.06.05.109.109a.886.886,0,0,1,.106.106l.159.195.1.143.056.085c.014.024.032.053.05.085l.039.077a1.377,1.377,0,0,1,.073.151l.085.2a3.206,3.206,0,0,1,.167.964,3.154,3.154,0,0,1-.164.96l-.08.2c-.029.066-.056.114-.082.162L8.2,8.778c-.017.029-.036.057-.05.082l-.138.207-.046.061-.126.147a1.116,1.116,0,0,1-.109.118l-.092.09a.989.989,0,0,1-.077.064L7.4,9.673a2.518,2.518,0,0,1-.634.334l-.13.044a.658.658,0,0,1-.12.032l-.161.032a1.028,1.028,0,0,1-.113.017l-.147.011c-.036,0-.062,0-.084,0A.259.259,0,0,1,5.952,10.145Z" transform="translate(1 5)" fill="#fbb6ce"/>
</svg>
