<svg id="lh_icon_fattymeat" xmlns="http://www.w3.org/2000/svg" width="30" height="30" viewBox="0 0 30 30">
  <rect id="長方形_246" data-name="長方形 246" width="30" height="30" fill="rgba(255,255,255,0)" opacity="0"/>
  <path id="合体_28" data-name="合体 28" d="M17638.984,9257.27l-11.881-.333a8.071,8.071,0,0,1-5.426-2.055,6.928,6.928,0,0,1-2.129-4.373h-.051v-3.7h.033c.006-.107.014-.216.027-.319a8.211,8.211,0,0,1,3.08-5.437,10.893,10.893,0,0,1,6.9-2.236c.3,0,.6.012.9.031a9.073,9.073,0,0,1,5.174,1.877,10.164,10.164,0,0,0,5.928,2.023c3.227.2,5.6,2.1,5.91,4.688h.041v3.7h-.08c-.018.088-.033.177-.047.261a7.158,7.158,0,0,1-2.941,4.188,9.039,9.039,0,0,1-5.213,1.685Zm-15.783-15.514a7.305,7.305,0,0,0-2.746,4.836,6.14,6.14,0,0,0-.045.68l-.008.185v2.248l.016.328a6.006,6.006,0,0,0,1.877,4.193,7.211,7.211,0,0,0,4.832,1.808l11.881.332c.074,0,.141,0,.209,0a8.124,8.124,0,0,0,4.688-1.52,6.249,6.249,0,0,0,2.582-3.645,4,4,0,0,0,.082-.561l.025-.248v-2.341l0-.151c-.076-2.324-2.172-4.076-5.1-4.257a11.019,11.019,0,0,1-6.373-2.176,8.264,8.264,0,0,0-4.727-1.725c-.283-.021-.572-.028-.85-.028A10.01,10.01,0,0,0,17623.2,9241.756Zm15.824,11.9-11.883-.332a6.489,6.489,0,0,1-4.908-2.085,5.851,5.851,0,0,1-1.287-4.588c.449-3.793,3.984-6.437,8.594-6.437.268,0,.543.008.82.023a7.74,7.74,0,0,1,4.48,1.645,11.448,11.448,0,0,0,6.615,2.26,5.275,5.275,0,0,1,3.959,1.853,3.426,3.426,0,0,1,.586,2.888,5.773,5.773,0,0,1-2.443,3.4,7.652,7.652,0,0,1-4.342,1.381C17639.156,9253.661,17639.088,9253.661,17639.025,9253.657Zm-17.184-6.9a4.979,4.979,0,0,0,1.076,3.892,5.63,5.63,0,0,0,4.248,1.772l11.883.332h.168a6.734,6.734,0,0,0,3.824-1.217,4.89,4.89,0,0,0,2.08-2.852,2.569,2.569,0,0,0-.424-2.148,4.411,4.411,0,0,0-3.3-1.5,12.225,12.225,0,0,1-7.064-2.412,6.809,6.809,0,0,0-4.031-1.488c-.256-.016-.518-.028-.764-.028C17625.4,9241.115,17622.238,9243.436,17621.842,9246.761Zm16.971,5.168-3.148-.092,4.674-6.193c.221.021.443.041.674.053a3.642,3.642,0,0,1,2.729,1.2,1.852,1.852,0,0,1,.3,1.587c-.408,1.865-2.736,3.441-5.08,3.441Zm-8.652-.243,5.533-7.338a11.027,11.027,0,0,0,2.814,1.012l-4.844,6.422Zm-2.7-.077a5.282,5.282,0,0,1-3-.907l6.547-8.673a5.957,5.957,0,0,1,2.967,1.268c.107.068.205.136.314.207l-6.131,8.126Zm-4.533-4.776c.32-2.684,2.777-4.616,6.074-4.855l-5.639,7.468A4.425,4.425,0,0,1,17622.93,9246.832Z" transform="translate(-17618.498 -9232.815)" fill="#fbb6ce"/>
</svg>
