<svg id="lh_icon_noodle" xmlns="http://www.w3.org/2000/svg" width="30" height="30" viewBox="0 0 30 30">
  <rect id="長方形_234" data-name="長方形 234" width="30" height="30" fill="rgba(255,255,255,0)" opacity="0"/>
  <path id="合体_37" data-name="合体 37" d="M17677.7,9019.416a4.728,4.728,0,0,1-.814-.061,2.6,2.6,0,0,1-.789-.24,2.257,2.257,0,0,1-.516-.36,2.006,2.006,0,0,1-.475-.7,2.321,2.321,0,0,1-.154-.862v0a3.784,3.784,0,0,1,.039-.51c.012-.1.025-.2.037-.3a.714.714,0,0,0,.018-.111l.043-.33a14.081,14.081,0,0,1-7.57-10.962l-.018-.12.039-.536a2.555,2.555,0,0,1,.822-1.724,2.594,2.594,0,0,1,1.768-.694h22.746a2.592,2.592,0,0,1,2.588,2.418l.037.536-.018.124a13.967,13.967,0,0,1-2.846,7.039,14.125,14.125,0,0,1-4.979,4.048l.039.282c.018.107.035.215.049.326a4.977,4.977,0,0,1,.037.51v0a2.652,2.652,0,0,1-.1.707,1.966,1.966,0,0,1-.477.807,2.01,2.01,0,0,1-.5.373,2.744,2.744,0,0,1-.7.249,4.582,4.582,0,0,1-.963.086Zm-6.652-8.1a13.254,13.254,0,0,0,4.779,3.911l.313.149-.137,1.029a.992.992,0,0,1-.018.12c-.014.086-.025.18-.037.266-.018.158-.027.278-.031.4a1.445,1.445,0,0,0,.09.506,1.025,1.025,0,0,0,.236.356,1.256,1.256,0,0,0,.283.192,1.725,1.725,0,0,0,.518.154,4.1,4.1,0,0,0,.656.047h7.334a3.756,3.756,0,0,0,.764-.064,1.717,1.717,0,0,0,.447-.154,1.2,1.2,0,0,0,.27-.2,1.026,1.026,0,0,0,.246-.408,1.537,1.537,0,0,0,.055-.429,2.937,2.937,0,0,0-.031-.395c-.008-.1-.023-.206-.037-.3l-.018-.1-.121-.9.326-.15a13.194,13.194,0,0,0,4.936-3.91,13.056,13.056,0,0,0,1.979-3.618h-2.154v-2.577h-3.555v1.81h2.256v-.425h-1.7v-.768h2.475v1.96h-3.8v-3.349h5.1v2.581h1.631c.041-.141.078-.282.115-.425h-1.168v-2.156h1.463l-.006-.077a1.633,1.633,0,0,0-1.615-1.521l-.078,0-22.687,0a1.63,1.63,0,0,0-1.617,1.517l0,.082h3.67v2.581h3.564v-1.81h-2.213v.617h1.66v.768h-2.428v-2.156h3.75v3.349h-5.105v-2.577h-2.877c.031.207.064.413.1.617h2.248v1.96h-1.717A13.049,13.049,0,0,0,17671.047,9011.32Zm-.949-4.27v-.425h-1.307c.035.143.074.284.115.425Zm23.717-1.192h.564c.039-.2.072-.41.1-.617h-.666Zm-12.266,1.96v-2.577H17678v1.81h2.254v-.425h-1.7v-.768h2.469v1.96h-3.8v-3.349h5.1v2.581h3.568v-1.81h-2.219v.617h1.66v.768h-2.426v-2.156h3.756v3.349Z" transform="translate(-17666.5 -8993.906)" fill="#fbb6ce"/>
</svg>
