<svg id="lh_icon_bread" xmlns="http://www.w3.org/2000/svg" width="30" height="30" viewBox="0 0 30 30">
  <rect id="長方形_228" data-name="長方形 228" width="30" height="30" fill="rgba(255,255,255,0)" opacity="0"/>
  <path id="パス_219" data-name="パス 219" d="M27.3,39.675c.1.123.185.234-.015-.021-.178-.223-.105-.131-.015-.016a7.739,7.739,0,0,0-3.112-1.848l-4.344-1.936-4.343-1.936a11.216,11.216,0,0,0-3.627-1.158A14.866,14.866,0,0,0,4.3,34.276,7.684,7.684,0,0,0,.129,38.618,2.05,2.05,0,0,0,.682,40.93c.438.244,1.011-.01,1.094.673a3.068,3.068,0,0,1,0,.42c-.024,1.013-.11,8.86-.042,9.545.062.628.358.854.923,1.038.424.138,10.685,4.633,11.2,4.529L24.02,55.057c.433-.088.989-.114,1.273-.487a1.714,1.714,0,0,0,.229-1.085q.077-3.306.154-6.611l.026-1.122c0-.09,0-.18.006-.271,0-.13.514-.315.637-.4A3.919,3.919,0,0,0,27.3,39.675Zm-2.247-1.432.074.024Q24.979,38.224,25.056,38.243Zm1.387,4.583c-.026.06-.017.039,0,.008a2,2,0,0,1-1.275,1.041A1.079,1.079,0,0,0,24.338,45q-.008.359-.017.717-.048,2.02-.1,4.041-.041,1.75-.082,3.5c-.006.268-.029.219-.313.276l-1.92.393-7.426,1.517q.08-3.463.162-6.926c.011-.494.32-2.506-.607-2.359a1.231,1.231,0,0,1-1.38-.516,1.871,1.871,0,0,1,.261-1.666A6.908,6.908,0,0,1,15.573,41.6a14.145,14.145,0,0,1,6.854-1.758,6.626,6.626,0,0,1,2.629.485c.98.435,1.841,1.394,1.391,2.488C26.462,42.778,26.476,42.746,26.443,42.826Z" transform="translate(1 -29.215)" fill="#fbb6ce"/>
</svg>
