<svg id="lh_icon_alcohol" xmlns="http://www.w3.org/2000/svg" width="30" height="30" viewBox="0 0 30 30">
  <rect id="長方形_235" data-name="長方形 235" width="30" height="30" fill="rgba(255,255,255,0)" opacity="0"/>
  <path id="パス_337" data-name="パス 337" d="M17.061,20.527c-.056-1.28.223-17.025.223-17.693S16.894,2,16.226,2H2.929c-.668,0-1.057.167-1.057.835s.278,16.413.223,17.693-.056,5.229-.056,5.619-.334,1.224.557,1.836,4.534.89,6.982.89,6.092-.278,6.982-.89.556-1.447.556-1.836S17.116,21.807,17.061,20.527Z" transform="translate(1.128 0)" fill="none" stroke="#fbb6ce" stroke-width="1"/>
  <path id="パス_338" data-name="パス 338" d="M445.6,97.051c0,.389.246-2.667,2.193-3.557s4.173.221,4.9,2.559.556,5.954-1.5,8.067-4.4,2.448-4.84,2.282-.789-.445-.789-.167v4.451c0,.389.121.668.511.389s1-1.446,1.892-1.78,7.288-3.45,7.511-9.514-3.505-8.791-5.787-8.791c-1.947,0-3.468.723-3.746,2.17A35.95,35.95,0,0,1,445.6,97.051Z" transform="translate(-427.323 -85.985)" fill="none" stroke="#fbb6ce" stroke-width="1"/>
  <path id="前面オブジェクトで型抜き_8" data-name="前面オブジェクトで型抜き 8" d="M6.489,17.469c-3.007,0-5.835-.367-6.354-.7-.144-.1-.159-.111-.106-.511a3,3,0,0,0,.035-.406c0-.719,0-4.365.054-5.572C.15,9.529.078,4.391.011,0H12.968c-.062,4.045-.141,9.511-.107,10.285.053,1.2.055,4.852.055,5.572a2.933,2.933,0,0,0,.034.4v0c.052.4.037.412-.106.513C12.323,17.1,9.494,17.469,6.489,17.469ZM1.312.435a.293.293,0,0,0-.224.1C.852.8.8,1.567.938,2.806c0,.089.145,9.184.135,9.859a.564.564,0,0,0,.142.422.359.359,0,0,0,.255.109c.19,0,.4-.162.4-.518C1.885,12.02,1.848,3.365,1.8,2.4c-.009-.195-.011-.4-.012-.543C1.783,1.13,1.777.443,1.316.435ZM5.461,12.082a.306.306,0,1,0,.306.307A.307.307,0,0,0,5.461,12.082ZM4.228,9.209a.249.249,0,1,0,.248.249A.25.25,0,0,0,4.228,9.209Zm3.867-.761a.306.306,0,1,0,.306.305A.307.307,0,0,0,8.094,8.448ZM4.607,4.971a.408.408,0,1,0,.409.408A.408.408,0,0,0,4.607,4.971ZM8.158,2.789a.364.364,0,1,0,.363.363A.364.364,0,0,0,8.158,2.789Z" transform="translate(4.216 9.177)" fill="#fbb6ce"/>
</svg>
