<svg id="lh_icon_highcalorie" xmlns="http://www.w3.org/2000/svg" width="30" height="30" viewBox="0 0 30 30">
  <rect id="長方形_247" data-name="長方形 247" width="30" height="30" fill="rgba(255,255,255,0)" opacity="0"/>
  <path id="合体_39" data-name="合体 39" d="M17618.955,9233.688a5.118,5.118,0,0,1-2.094-.853,2.109,2.109,0,0,1-.863-1.729V9229.7a1.3,1.3,0,0,1,1.3-1.3h25.4a1.3,1.3,0,0,1,1.3,1.3v1.411c0,1.82-2.486,2.364-4.357,2.616a81.12,81.12,0,0,1-9.641.364c-.777,0-1.539,0-2.281.008-.711,0-1.383.008-2.047.008A35.542,35.542,0,0,1,17618.955,9233.688Zm-2.051-3.992v1.411c0,.524.23,1.269,2.244,1.7a34.8,34.8,0,0,0,6.523.4c.658,0,1.332,0,2.043-.009.738,0,1.508-.008,2.285-.008a80.712,80.712,0,0,0,9.52-.352c2.371-.319,3.574-.9,3.574-1.725V9229.7a.393.393,0,0,0-.395-.4h-25.4A.4.4,0,0,0,17616.9,9229.7Zm1.818-2.773a1.524,1.524,0,0,1-1.523-1.522v-1.341a1.522,1.522,0,0,1,1.523-1.521h11.033l3.234,3.236a2.124,2.124,0,0,0,3,0l3.234-3.236h2.049a1.523,1.523,0,0,1,1.523,1.521v1.341a1.525,1.525,0,0,1-1.523,1.522Zm-1.424-5.56a1.3,1.3,0,0,1-1.3-1.3v-1.1c0-2.655,1.48-5.106,4.172-6.895a19.308,19.308,0,0,1,19.656,0c2.693,1.788,4.172,4.239,4.172,6.895v1.1a1.3,1.3,0,0,1-1.3,1.3Zm-.395-2.4v1.1a.4.4,0,0,0,.395.4h25.4a.4.4,0,0,0,.395-.4v-1.1c0-4.867-5.75-8.679-13.094-8.679S17616.9,9214.1,17616.9,9218.966Zm11.748-3.143a1.348,1.348,0,1,1,1.348,1.349A1.347,1.347,0,0,1,17628.652,9215.823Zm.9,0a.446.446,0,0,0,.893,0,.446.446,0,1,0-.893,0Zm5.828-.9a1.353,1.353,0,1,1,1.35,1.352A1.352,1.352,0,0,1,17635.383,9214.923Zm.9,0a.447.447,0,1,0,.445-.443A.449.449,0,0,0,17636.287,9214.923Zm-14.371,0a1.35,1.35,0,1,1,1.346,1.352A1.347,1.347,0,0,1,17621.916,9214.923Zm.9,0a.448.448,0,1,0,.9,0,.448.448,0,0,0-.9,0Zm8.529-2.692a1.35,1.35,0,1,1,1.352,1.348A1.353,1.353,0,0,1,17631.344,9212.23Zm.9,0a.449.449,0,0,0,.9,0,.449.449,0,0,0-.9,0Zm-6.291,0a1.35,1.35,0,1,1,1.348,1.348A1.351,1.351,0,0,1,17625.955,9212.23Zm.9,0a.445.445,0,1,0,.443-.448A.445.445,0,0,0,17626.859,9212.23Z" transform="translate(-17614.998 -9206.383)" fill="#fbb6ce"/>
</svg>
