<svg id="lh_icon_soy" xmlns="http://www.w3.org/2000/svg" width="30" height="30" viewBox="0 0 30 30">
  <rect id="長方形_229" data-name="長方形 229" width="30" height="30" fill="rgba(255,255,255,0)" opacity="0"/>
  <path id="大豆製品" d="M43.593-.5a8.677,8.677,0,0,1,6.289,2.713,7.814,7.814,0,0,1,2.174,5.819c-.128,2.378-1.008,6.266-4.472,11.278-3.635,5.259-6.709,6.8-8.706,7.5a9.37,9.37,0,0,1-3.331.686,8.51,8.51,0,0,1-5.173-15.231c.086-.082.178-.169.282-.256,3.8-3.184,4.3-4.776,4.728-6.178A8.485,8.485,0,0,1,43.593-.5ZM35.547,26.423a8.087,8.087,0,0,0,2.96-.62l.011,0c3.876-1.361,6.527-4.706,8.185-7.1,3.321-4.8,4.161-8.482,4.282-10.722A6.745,6.745,0,0,0,49.1,2.953,7.6,7.6,0,0,0,43.593.577a7.412,7.412,0,0,0-7.175,5.542l-.006.022a9.4,9.4,0,0,1-1.294,2.8,20.147,20.147,0,0,1-3.776,3.9c-.086.072-.169.151-.247.226l-.021.021-.023.018a7.432,7.432,0,0,0,4.5,13.318ZM37.054,7.759a1.455,1.455,0,0,1,1.186.616,1.493,1.493,0,0,1,.167,1.369,7.546,7.546,0,0,1-2.6,3.587,1.506,1.506,0,0,1-.834.254,1.575,1.575,0,0,1-1.443-.945,1.1,1.1,0,0,1,.3-1.241,14.48,14.48,0,0,0,1.892-2.725,3.775,3.775,0,0,1,.218-.358A1.394,1.394,0,0,1,37.054,7.759Zm-2.079,4.748a.429.429,0,0,0,.244-.075,6.493,6.493,0,0,0,2.176-3.043A.413.413,0,0,0,37.366,9a.394.394,0,0,0-.312-.163.316.316,0,0,0-.252.128c-.024.037-.086.145-.147.25a14,14,0,0,1-2.1,2.98.127.127,0,0,0-.032.038.264.264,0,0,0,.075.116A.546.546,0,0,0,34.974,12.507Z" transform="translate(-25.084 1.5)" fill="#fbb6ce"/>
</svg>
