<svg id="lh_icon_mushroom" xmlns="http://www.w3.org/2000/svg" width="30" height="30" viewBox="0 0 30 30">
  <rect id="長方形_227" data-name="長方形 227" width="30" height="30" fill="rgba(255,255,255,0)" opacity="0"/>
  <path id="合体_38" data-name="合体 38" d="M17672.988,9170.081a5.189,5.189,0,0,1-3.275-6.038,7.459,7.459,0,0,1,.738-1.778l.158-.309a21.623,21.623,0,0,0,1.061-2.6c.162-.472.291-.97.412-1.433a.542.542,0,0,1,.471-.406c.479-.053.947-.092,1.432-.12.172-.01.352-.015.525-.019.068,0,.141,0,.207-.006h.107c.057,0,.111,0,.168-.01.1,0,.2,0,.3,0a30.474,30.474,0,0,1,5.014.464.539.539,0,0,1,.455.506,27.628,27.628,0,0,1-.227,5c-.1.755-.24,1.516-.393,2.257l-.043.22a7.521,7.521,0,0,1-.4,1.429,5.357,5.357,0,0,1-4.889,3.175A5.2,5.2,0,0,1,17672.988,9170.081Zm1.547-11.631c-.17.006-.33.011-.484.021-.34.019-.674.047-1.006.075-.1.379-.215.771-.342,1.157a23.084,23.084,0,0,1-1.117,2.738l-.16.308c-.006,0-.006,0-.006.008a6.691,6.691,0,0,0-.643,1.525,4.12,4.12,0,0,0,2.592,4.79,4.25,4.25,0,0,0,5.322-2.258,6.677,6.677,0,0,0,.334-1.229l.049-.223c.148-.713.275-1.449.377-2.181a26.613,26.613,0,0,0,.232-4.375,28.933,28.933,0,0,0-4.395-.376c-.078,0-.16,0-.248,0-.066,0-.129.01-.2.01h-.1C17674.674,9158.45,17674.6,9158.45,17674.535,9158.45Zm7.453-.588h0c-.494-.071-.977-.152-1.4-.22a31.61,31.61,0,0,0-4.832-.53h-.1c-1.2,0-2.439.119-3.627.239-.7.067-1.42.134-2.129.182-.4.024-.705.038-.988.038a5,5,0,0,1-3-.779,5.171,5.171,0,0,1-1.9-3.828c-.223-3.279,2.574-6.053,3.781-7.095a13.786,13.786,0,0,1,8.783-3.463h.053a14.084,14.084,0,0,1,9.951,4.285c2.422,2.521,3.471,5.651,2.814,8.376a3.716,3.716,0,0,1-2.5,2.772,6.842,6.842,0,0,1-2.109.3A19.006,19.006,0,0,1,17681.988,9157.862Z" transform="translate(-17662.002 -9141.405)" fill="#fbb6ce"/>
</svg>
