<svg id="lh_icon_dentifrice" xmlns="http://www.w3.org/2000/svg" width="30" height="30" viewBox="0 0 30 30">
  <rect id="長方形_250" data-name="長方形 250" width="30" height="30" fill="rgba(255,255,255,0)" opacity="0"/>
  <path id="合体_32" data-name="合体 32" d="M0,7.513,2.734,4.781l0,0L7.514,0,8.88,1.37h0L10.93,3.416l1.364,1.365h0l1.364,1.367L8.88,10.927l14.341,14.34L20.487,28Zm1.37,0L20.487,26.636l1.364-1.369L6.83,10.245,4.782,8.2,2.734,6.149ZM8.2,10.245l4.1-4.1-.684-.685-4.1,4.1ZM6.83,8.876,8.88,6.829l2.048-2.05L10.246,4.1,6.15,8.2ZM5.466,7.513l4.1-4.1-.68-.684-4.1,4.1ZM4.1,6.147,8.2,2.053l-.684-.684-4.1,4.1Z" transform="translate(3.5 1)" fill="#fbb6ce"/>
</svg>
