<svg id="lh_icon_salt" xmlns="http://www.w3.org/2000/svg" width="30" height="30" viewBox="0 0 30 30">
  <rect id="長方形_233" data-name="長方形 233" width="30" height="30" fill="rgba(255,255,255,0)" opacity="0"/>
  <path id="合体_36" data-name="合体 36" d="M17661,9064.908v-.534c0-4.593,1.23-8.554,2.541-12.754a75.02,75.02,0,0,0,2.055-7.511h-.6l-.689-2.775h-1.5v-3.36h.674l-.27-1.065h12.531l-1.779,7.2h-.6a75.545,75.545,0,0,0,2.057,7.511c1.3,4.2,2.541,8.161,2.541,12.754v.534Zm3.57-12.967c-1.23,3.951-2.4,7.688-2.486,11.893h14.789c-.09-4.205-1.256-7.941-2.484-11.893a74.05,74.05,0,0,1-2.15-7.946h-5.52A74.513,74.513,0,0,1,17664.57,9051.941Zm-1.363,10.449.092-.615c.037-.235.072-.5.105-.78a33.319,33.319,0,0,1,2.27-8.82l.133-.334h7.494l.131.343a35.434,35.434,0,0,1,2.1,8.1c.074.516.146,1,.236,1.462l.125.641Z" transform="translate(-17654 -9035.908)" fill="#fbb6ce"/>
</svg>
