<svg id="lh_icon_exercise" xmlns="http://www.w3.org/2000/svg" width="30" height="30" viewBox="0 0 30 30">
  <rect id="長方形_253" data-name="長方形 253" width="30" height="30" fill="rgba(255,255,255,0)" opacity="0"/>
  <path id="合体_41" data-name="合体 41" d="M17640.316,9025.5a1.791,1.791,0,0,1-.826-.2l-.014-.007-4.5-2.458a6.609,6.609,0,0,1-1.541-1.16l-2.893-2.907-5.705-.184.365,3.987a1.832,1.832,0,0,1-1.547,1.978l-.062.007a1.737,1.737,0,0,1-.266.02,1.832,1.832,0,0,1-1.8-1.482l-1.229-6.336a2.549,2.549,0,0,1,2.5-3.042h.016l4.01.015-.816-3.281-2.783,1.053a2.373,2.373,0,0,1-2.043-.18l-3.916-2.343a1.55,1.55,0,0,1-.727-.979,1.582,1.582,0,0,1,.182-1.2l.043-.072a1.571,1.571,0,0,1,1.35-.757,1.59,1.59,0,0,1,.775.2l3.035,1.7,4.951-2.99a3.575,3.575,0,0,1,1.566-.683,3.085,3.085,0,0,1,.32-.038c.01,0,.127-.012.285-.012.07,0,.143,0,.207.007l7.094.393a2.258,2.258,0,0,1,1.418.574l2.848,2.525a1.538,1.538,0,0,1,.133,2.139l-.043.044a1.522,1.522,0,0,1-1.947.253l-3.039-1.966-2.988.277,1.025,5.786,3.342,5.247,4.184,2.675a1.8,1.8,0,0,1,.635,2.425l-.023.046A1.82,1.82,0,0,1,17640.316,9025.5Zm-.373-1.078a.838.838,0,0,0,.373.089.824.824,0,0,0,.719-.421l.025-.046a.811.811,0,0,0-.289-1.1l-.012-.007-4.375-2.8-.059-.092-3.5-5.5-.018-.1-1.23-6.942,4.4-.406.143.093,3.18,2.057a.523.523,0,0,0,.287.085.529.529,0,0,0,.4-.182l.02-.022.016-.013a.542.542,0,0,0-.061-.733l-2.846-2.525a1.263,1.263,0,0,0-.8-.323h-.01l-7.105-.394c-.045,0-.094,0-.145,0-.113,0-.2.008-.2.008-.1.009-.174.017-.236.027a2.6,2.6,0,0,0-1.15.5l-.023.02-.027.016-5.467,3.3-.25-.141-3.287-1.839a.6.6,0,0,0-.293-.077.585.585,0,0,0-.5.285l-.045.072a.608.608,0,0,0-.066.446.582.582,0,0,0,.271.363l3.92,2.344a1.363,1.363,0,0,0,.7.191,1.4,1.4,0,0,0,.486-.088l3.824-1.447.135.541,1.258,5.057-.637,0-4.656-.019a1.562,1.562,0,0,0-1.529,1.863l1.227,6.337a.847.847,0,0,0,.828.682.9.9,0,0,0,.125-.009l.059-.008a.841.841,0,0,0,.705-.906l-.467-5.1.559.017,6.66.214.139.14,3.031,3.047a5.653,5.653,0,0,0,1.314.99Zm-12.437-20.106a3.408,3.408,0,1,1,3.406-3.408A3.41,3.41,0,0,1,17627.506,9004.315Zm0-5.826a2.418,2.418,0,1,0,2.418,2.418A2.42,2.42,0,0,0,17627.506,8998.489Z" transform="translate(-17613.5 -8996.5)" fill="#fbb6ce"/>
</svg>
