<svg id="lh_keep" xmlns="http://www.w3.org/2000/svg" width="67.736" height="40" viewBox="0 0 67.736 40">
  <g id="icon__" data-name="icon_○" transform="translate(13.999)" opacity="0.2">
    <path id="ログインボタン_-_アウトライン" data-name="ログインボタン - アウトライン" d="M20,6A14,14,0,1,0,34,20,14.016,14.016,0,0,0,20,6m0-6A20,20,0,1,1,0,20,20,20,0,0,1,20,0Z" fill="#03af7a"/>
  </g>
  <path id="ログイン" d="M-31.928-6.384c-2.7.8-3.92,2.176-3.92,3.712,0,1.648,1.264,2.736,3.424,3.04a16.371,16.371,0,0,0,2.1.128h.336a.677.677,0,0,0,.7-.752c0-.432-.272-.64-.72-.64a17.383,17.383,0,0,1-2.224-.128c-1.5-.208-2.24-.848-2.24-1.824,0-1.136.944-2.064,2.432-2.7a13.545,13.545,0,0,1,4.56-.96.6.6,0,0,0,.576-.64v-.032a.594.594,0,0,0-.64-.592h-.08c-2.544.16-5.136.432-7.328.7a19.507,19.507,0,0,0-2.592.48l-.016-.1c.7-.256,1.376-.528,1.92-.784a23.1,23.1,0,0,0,5.44-3.6.923.923,0,0,0,.32-.688.775.775,0,0,0-.112-.416.79.79,0,0,0-.784-.384h-.176c-.816.064-1.872.128-3.008.176-1.2.048-2.544.08-3.872.08a.58.58,0,0,0-.608.64.555.555,0,0,0,.576.608c1.84,0,4.112-.112,6.16-.32a35.069,35.069,0,0,1-6.864,4.192,12.231,12.231,0,0,1-1.744.64.608.608,0,0,0-.5.608.272.272,0,0,0,.016.112.583.583,0,0,0,.592.544.4.4,0,0,0,.128-.016c1.872-.288,3.888-.56,5.792-.784a17.086,17.086,0,0,0,2.336-.4Zm14.464-4.352a4.529,4.529,0,0,1,4.608,4.768A4.546,4.546,0,0,1-14.6-2.24a7.346,7.346,0,0,1-3.2,1.152.623.623,0,0,0-.576.624.544.544,0,0,0,.016.16.619.619,0,0,0,.672.56A.718.718,0,0,0-17.512.24a8.615,8.615,0,0,0,3.36-1.152,5.66,5.66,0,0,0,2.64-5.024c0-3.52-2.5-5.984-6.272-5.984-4.368,0-7.152,2.88-7.152,6.864,0,2.688,1.328,4.3,2.992,4.3a2.609,2.609,0,0,0,1.84-.7,6.532,6.532,0,0,0,1.584-2.9A26.391,26.391,0,0,0-17.464-10.736Zm-1.328.048A24,24,0,0,1-19.8-4.8a5.57,5.57,0,0,1-1.1,2.192,1.471,1.471,0,0,1-1.072.464c-.848,0-1.664-1.008-1.664-2.928A5.272,5.272,0,0,1-18.792-10.688ZM-.3-9.1v1.648H-1.96c-.256,0-.384.192-.384.464s.128.48.384.48H2.456c.256,0,.384-.224.384-.48,0-.272-.128-.464-.384-.464H.744V-9.1H2.28c.256,0,.384-.208.384-.48,0-.256-.128-.464-.384-.464H.744V-11.12c0-.272-.192-.4-.544-.4-.3,0-.5.128-.5.4v1.072h-1.52c-.256,0-.384.208-.384.48,0,.256.128.464.384.464ZM-9.512-10.72c-.288,0-.432.208-.432.528s.144.56.432.56h4.64c.288,0,.432-.256.432-.56,0-.32-.144-.528-.432-.528ZM-5.3-7.392c.256,0,.4-.272.4-.544,0-.288-.144-.512-.4-.512H-9.128c-.256,0-.4.224-.4.512s.144.544.4.544Zm0,2.224c.256,0,.4-.256.4-.544s-.144-.512-.4-.512H-9.112c-.272,0-.4.224-.4.512s.128.544.4.544ZM-9.1-12.96c-.272,0-.416.208-.416.528,0,.288.144.528.416.528h3.808c.272,0,.416-.24.416-.528,0-.32-.144-.528-.416-.528ZM-5-2.784c0-.832-.384-1.168-1.248-1.168H-8.2c-.848,0-1.248.336-1.248,1.168V-.24c0,.864.4,1.216,1.248,1.216h1.952C-5.384.976-5,.624-5-.24Zm-3.36.16c0-.3.144-.384.432-.384H-6.52c.288,0,.432.08.432.384V-.416c0,.3-.144.384-.432.384H-7.928c-.288,0-.432-.08-.432-.384ZM-.9-5.456c-.752,0-1.072.32-1.072,1.088v2.432c0,.768.32,1.088,1.072,1.088H1.128a.986.986,0,0,0,1.12-1.12v-2.4c0-.768-.336-1.088-1.088-1.088ZM-.984-4.1c0-.3.144-.384.384-.384H.856c.256,0,.4.08.4.384V-2.24c0,.3-.144.384-.4.384H-.6c-.24,0-.384-.08-.384-.384Zm5.392-7.488c0-.96-.4-1.328-1.344-1.328H-2.568c-.912,0-1.344.352-1.344,1.28A71.184,71.184,0,0,1-4.232-2.1,13.523,13.523,0,0,1-4.824.336a.968.968,0,0,0-.064.352.543.543,0,0,0,.32.512.672.672,0,0,0,.336.1A.585.585,0,0,0-3.688.88a14.945,14.945,0,0,0,.7-3.136,82.162,82.162,0,0,0,.256-9.184c0-.32.16-.4.464-.4H2.792c.3,0,.464.08.464.4V-.528c0,.448-.128.576-.7.576A5.579,5.579,0,0,1,1.416-.064.312.312,0,0,0,1.3-.08C1.1-.08.92.064.856.368A.544.544,0,0,0,.84.528a.486.486,0,0,0,.4.528,7.641,7.641,0,0,0,1.44.128c1.184,0,1.728-.432,1.728-1.36Zm9.568,5.92h6.016c.3,0,.464-.288.464-.624S20.3-6.9,19.992-6.9H13.976V-8.032a16.552,16.552,0,0,0,4.512-3.008,1.258,1.258,0,0,0,.368-.832c0-.5-.368-.928-1.12-.928H8.056c-.3,0-.48.272-.48.608,0,.352.176.592.48.592h8.832c.128,0,.192.048.192.112a.331.331,0,0,1-.144.224,13.708,13.708,0,0,1-3.36,2.176.968.968,0,0,0-.24-.032c-.368,0-.64.176-.64.48V-6.9H6.36c-.3,0-.464.272-.464.608s.16.624.464.624H12.7V-.816c0,.5-.128.624-1.008.624a6.944,6.944,0,0,1-1.376-.192A.443.443,0,0,0,10.168-.4a.557.557,0,0,0-.544.48.406.406,0,0,0-.032.192A.594.594,0,0,0,10.04.88a7.449,7.449,0,0,0,1.84.208c1.536,0,2.1-.448,2.1-1.52ZM25.184-3.488c0,.368.3.544.64.544a.582.582,0,0,0,.64-.544l.224-8.192c.016-.448-.336-.736-.848-.736-.528,0-.88.288-.88.736Zm.64,1.52a1.058,1.058,0,0,0-1.1,1.1,1.058,1.058,0,0,0,1.1,1.1,1.076,1.076,0,0,0,1.1-1.1A1.076,1.076,0,0,0,25.824-1.968Z" transform="translate(40.808 26)" fill="#03af7a"/>
</svg>
