<svg id="lh_regrettable" xmlns="http://www.w3.org/2000/svg" width="52.648" height="31.764" viewBox="0 0 52.648 31.764">
  <g id="icon__" data-name="icon_△" transform="translate(8.999)" opacity="0.2">
    <path id="多角形_2_-_アウトライン" data-name="多角形 2 - アウトライン" d="M20,12.037,10.371,28.783H29.629L20,12.037m0-9.018a2.972,2.972,0,0,1,2.6,1.5L37.415,30.287a3,3,0,0,1-2.6,4.5H5.186a3,3,0,0,1-2.6-4.5L17.4,4.523A2.972,2.972,0,0,1,20,3.018Z" transform="translate(-2.181 -3.018)" fill="#4dc4ff"/>
  </g>
  <path id="ログイン" d="M-21.288-10.432h1.776c.288,0,.448-.24.448-.544,0-.32-.16-.544-.448-.544h-1.776v-1.536c0-.288-.224-.448-.592-.448-.336,0-.576.16-.576.448v1.536H-25.3v-1.52c0-.288-.24-.448-.592-.448s-.576.16-.576.448v1.52h-1.6c-.288,0-.448.224-.448.544s.16.544.448.544h1.6v2.224h-1.984c-.3,0-.448.224-.448.544,0,.336.144.544.448.544h9.44c.3,0,.448-.224.448-.544,0-.336-.144-.544-.448-.544h-2.272Zm-1.168,0v2.224H-25.3v-2.224Zm-7.68-2.608c0-.288-.208-.448-.592-.448-.336,0-.608.16-.608.448V.928c0,.3.272.464.608.464.384,0,.592-.16.592-.464Zm-2.24,2.72h-.08a.45.45,0,0,0-.48.432,14.986,14.986,0,0,1-.592,3.424,1.255,1.255,0,0,0-.032.224.473.473,0,0,0,.368.448,1.255,1.255,0,0,0,.224.032.491.491,0,0,0,.5-.416,18.324,18.324,0,0,0,.592-3.632V-9.84C-31.88-10.144-32.088-10.288-32.376-10.32Zm2.912-.48a.4.4,0,0,0-.3.384.826.826,0,0,0,.032.176A7.6,7.6,0,0,1-29.3-8.72a.406.406,0,0,0,.416.352c.064,0,.112-.016.16-.016.24-.08.384-.192.384-.448a.4.4,0,0,0-.016-.128,8.181,8.181,0,0,0-.512-1.568.457.457,0,0,0-.416-.3A.826.826,0,0,0-29.464-10.8Zm2.848,4.864c-.928,0-1.328.384-1.328,1.28V-.272c0,.9.4,1.28,1.328,1.28h5.424c.928,0,1.312-.384,1.312-1.28V-4.656c0-.9-.384-1.28-1.312-1.28Zm5.552,2.88h-5.7V-4.5c0-.3.144-.4.432-.4h4.816c.288,0,.448.1.448.4Zm0,1.024V-.464c0,.3-.16.4-.448.4h-4.816c-.288,0-.432-.1-.432-.4V-2.032ZM-13.928-12.8h-.032a.642.642,0,0,0-.688.672c-.112,2.352-.192,5.312-.192,7.792,0,2.032.336,3.072,1.072,3.792A4.7,4.7,0,0,0-10.36.56a6.051,6.051,0,0,0,4.336-1.7A8.794,8.794,0,0,0-3.9-4.976a.888.888,0,0,0,.048-.272.672.672,0,0,0-.5-.656A.725.725,0,0,0-4.6-5.952c-.272,0-.5.176-.608.544A7.612,7.612,0,0,1-6.9-2.224,4.669,4.669,0,0,1-10.328-.848,3.429,3.429,0,0,1-12.76-1.52c-.512-.5-.7-1.328-.7-2.832,0-2.56.128-5.392.208-7.744v-.048A.61.61,0,0,0-13.928-12.8ZM-.9-11.12c0,1.712.016,3.584.112,4.864a10.992,10.992,0,0,0,1.344,5.1A2.29,2.29,0,0,0,2.488-.032,2.262,2.262,0,0,0,4.264-.976,7.174,7.174,0,0,0,5.432-4.24a.443.443,0,0,0,.016-.144.6.6,0,0,0-.608-.624.544.544,0,0,0-.16-.016c-.336,0-.512.176-.576.576A6.071,6.071,0,0,1,3.32-2.016a1,1,0,0,1-.912.5,1.239,1.239,0,0,1-.976-.72A11.2,11.2,0,0,1,.52-6.352c-.048-.736-.064-1.7-.064-2.72V-11.12c0-.4-.128-.672-.64-.672A.644.644,0,0,0-.9-11.12Zm9.168.256a.58.58,0,0,0-.336.528.785.785,0,0,0,.128.4,16.069,16.069,0,0,1,2.64,7.6.622.622,0,0,0,.656.624.718.718,0,0,0,.176-.016.675.675,0,0,0,.56-.768v-.112a17.011,17.011,0,0,0-2.9-8.048.629.629,0,0,0-.544-.32A.708.708,0,0,0,8.264-10.864Zm9.08,7.376c0,.368.3.544.64.544a.582.582,0,0,0,.64-.544l.224-8.192c.016-.448-.336-.736-.848-.736-.528,0-.88.288-.88.736Zm.64,1.52a1.058,1.058,0,0,0-1.1,1.1,1.058,1.058,0,0,0,1.1,1.1,1.076,1.076,0,0,0,1.1-1.1A1.076,1.076,0,0,0,17.984-1.968Z" transform="translate(33.56 24.982)" fill="#4dc4ff"/>
</svg>
