<svg xmlns="http://www.w3.org/2000/svg" width="127.52" height="40" viewBox="0 0 127.52 40">
  <g id="lh_verygood" transform="translate(0 0)">
    <g id="icon__" data-name="icon_◎" transform="translate(44.001)" opacity="0.2">
      <path id="合体_52" data-name="合体 52" d="M17820,16419a20,20,0,1,1,20,20A20,20,0,0,1,17820,16419Zm9.391-10.605A15,15,0,1,0,17840,16404,14.919,14.919,0,0,0,17829.391,16408.395ZM17828,16419a12,12,0,1,1,12,12A12,12,0,0,1,17828,16419Zm5,0a7,7,0,1,0,7-7A7.01,7.01,0,0,0,17833,16419Z" transform="translate(-17820 -16399)" fill="#f6aa00"/>
    </g>
    <path id="ログイン" d="M-65.688-2.208c.112.16.208.3.336.464a.52.52,0,0,0,.4.176.683.683,0,0,0,.432-.16.588.588,0,0,0,.224-.464.748.748,0,0,0-.144-.448c-.144-.224-.3-.432-.432-.656A18.331,18.331,0,0,0-63.08-7.024a22.788,22.788,0,0,0,.64-2.208,4.352,4.352,0,0,1,1.824.7A3.938,3.938,0,0,1-59-5.232c0,2.416-1.984,4.064-5.008,4.448a.6.6,0,0,0-.576.608.443.443,0,0,0,.016.144A.609.609,0,0,0-63.912.5a.6.6,0,0,0,.16-.016c3.728-.464,6.1-2.576,6.1-5.728A4.812,4.812,0,0,0-59.9-9.52a5.5,5.5,0,0,0-2.288-.848c.128-.64.24-1.264.32-1.84a.443.443,0,0,0,.016-.144.573.573,0,0,0-.56-.592.443.443,0,0,0-.144-.016c-.32,0-.528.176-.576.56-.08.608-.192,1.264-.32,1.92a8.136,8.136,0,0,0-3.9.912c-.144-.768-.272-1.552-.368-2.32a.516.516,0,0,0-.544-.528.6.6,0,0,0-.16.016.567.567,0,0,0-.5.608v.112c.128.944.3,1.872.512,2.768a6.278,6.278,0,0,0-2.7,5.024c0,2.064,1.088,3.216,2.528,3.216A3.633,3.633,0,0,0-65.688-2.208Zm-.688-1.056a2.792,2.792,0,0,1-2.16,1.328c-.752,0-1.328-.8-1.328-2.048a4.837,4.837,0,0,1,1.776-3.664A19.869,19.869,0,0,0-66.376-3.264Zm.768-1.072a19.715,19.715,0,0,1-1.456-4.112,7.045,7.045,0,0,1,3.376-.9,19.867,19.867,0,0,1-.544,1.936A17.589,17.589,0,0,1-65.608-4.336Zm18-4.192A22.465,22.465,0,0,0-53.656-7.52a.573.573,0,0,0-.464.576,1.235,1.235,0,0,0,.032.24.573.573,0,0,0,.576.432,1.235,1.235,0,0,0,.24-.032,20.3,20.3,0,0,1,5.7-1.04c1.92,0,2.848,1.008,2.848,2.512A2.983,2.983,0,0,1-46.552-1.92a11.7,11.7,0,0,1-4.288.7.6.6,0,0,0-.624.656v.032a.607.607,0,0,0,.672.608h.128A12.083,12.083,0,0,0-46.1-.736a4.3,4.3,0,0,0,2.656-4.128C-43.448-6.976-44.872-8.528-47.608-8.528ZM-36.52-5.04A24.56,24.56,0,0,0-34.472-9.2a56.445,56.445,0,0,0,6.336-.5.6.6,0,0,0,.56-.64v-.112a.575.575,0,0,0-.592-.512.443.443,0,0,0-.144.016c-1.584.208-3.728.4-5.712.464.192-.56.384-1.2.56-1.824a1.235,1.235,0,0,0,.032-.24.53.53,0,0,0-.512-.544.544.544,0,0,0-.16-.016.587.587,0,0,0-.64.544c-.192.736-.384,1.44-.608,2.112-1.328,0-2.48-.032-3.456-.08h-.064a.565.565,0,0,0-.56.592v.048a.584.584,0,0,0,.544.64c.656.048,1.488.064,2.336.064h.768a30.6,30.6,0,0,1-2.384,4.816.946.946,0,0,0-.16.5.64.64,0,0,0,.336.56.7.7,0,0,0,.368.1,1.407,1.407,0,0,0,.8-.352,8.836,8.836,0,0,1,5.2-1.856c2.128,0,3.232.7,3.232,2.016,0,1.68-1.808,2.56-4.384,2.56a13.491,13.491,0,0,1-3.6-.464.8.8,0,0,0-.256-.048.613.613,0,0,0-.608.48.642.642,0,0,0-.048.24.654.654,0,0,0,.5.624,14.5,14.5,0,0,0,4.048.48c4.032,0,5.728-1.728,5.728-3.872,0-1.856-1.472-3.184-4.448-3.184A8.81,8.81,0,0,0-36.44-5.008Zm19.68-3.168a19.648,19.648,0,0,0-2.608.752c-.192-.576-.384-1.232-.64-1.872a.555.555,0,0,0-.544-.4,1.6,1.6,0,0,0-.256.032.559.559,0,0,0-.432.528.936.936,0,0,0,.032.208c.256.624.5,1.312.672,1.9a21.21,21.21,0,0,0-1.968.816.6.6,0,0,0-.368.544.747.747,0,0,0,.048.272.565.565,0,0,0,.512.352.565.565,0,0,0,.272-.064c.56-.256,1.264-.56,1.856-.8C-19.672-3.9-19.08-1.6-18.632.528a.562.562,0,0,0,.576.48.779.779,0,0,0,.192-.016.58.58,0,0,0,.5-.608A.443.443,0,0,0-17.384.24c-.464-2.176-1.136-4.5-1.744-6.592a15.074,15.074,0,0,1,1.5-.5A9.465,9.465,0,0,1-15-7.248a1.8,1.8,0,0,1,2.032,1.792A1.79,1.79,0,0,1-15-3.648a3.312,3.312,0,0,1-1.488-.384.718.718,0,0,0-.3-.08.6.6,0,0,0-.528.352.642.642,0,0,0-.048.24.67.67,0,0,0,.384.592,4.7,4.7,0,0,0,2.048.464,2.917,2.917,0,0,0,3.152-2.992,2.877,2.877,0,0,0-3.2-2.928c-.24,0-.48.016-.672.032l-.1-1.408a.522.522,0,0,0-.592-.528h-.048c-.3.032-.576.192-.576.528v.048Zm11.68-4.768a.718.718,0,0,0-.176-.016.611.611,0,0,0-.592.464.8.8,0,0,0-.048.256.534.534,0,0,0,.432.544,44.288,44.288,0,0,0,6.528.88h.048a.608.608,0,0,0,.688-.592v-.08a.6.6,0,0,0-.64-.624A42.251,42.251,0,0,1-5.16-12.976Zm2.144,8.544A15.376,15.376,0,0,0-1.7-5.408C-.76-6.208.312-7.12,1.272-8.016a.913.913,0,0,0,.336-.672A.857.857,0,0,0,1.5-9.1a.813.813,0,0,0-.8-.384H.536c-2.32.24-5.552.448-7.584.48a.6.6,0,0,0-.544.656v.032a.645.645,0,0,0,.64.656,57.939,57.939,0,0,0,6.72-.592c-.928.768-2.272,1.984-3.6,3.168C-5.5-3.568-7.16-2.032-8.328-.944A.786.786,0,0,0-8.6-.352a.694.694,0,0,0,.208.48.631.631,0,0,0,.48.208A.848.848,0,0,0-7.336.08C-6.568-.64-5.7-1.488-4.952-2.192a5.056,5.056,0,0,1,3.072-1.6c.544,0,.848.24.912,1.44C-.856-.192-.28.464,1.688.464A7.672,7.672,0,0,0,4.712-.16a.693.693,0,0,0,.432-.656.742.742,0,0,0-.064-.3A.594.594,0,0,0,4.52-1.5a.86.86,0,0,0-.336.08,5.787,5.787,0,0,1-2.4.608C.68-.816.392-1.12.3-2.752.2-4.288-.28-4.816-1.288-4.816a3.13,3.13,0,0,0-1.648.5ZM10.52-12.976a.718.718,0,0,0-.176-.016.611.611,0,0,0-.592.464.8.8,0,0,0-.048.256.534.534,0,0,0,.432.544,44.288,44.288,0,0,0,6.528.88h.048a.608.608,0,0,0,.688-.592v-.08a.6.6,0,0,0-.64-.624A42.251,42.251,0,0,1,10.52-12.976Zm2.144,8.544a15.376,15.376,0,0,0,1.312-.976c.944-.8,2.016-1.712,2.976-2.608a.913.913,0,0,0,.336-.672.857.857,0,0,0-.112-.416.813.813,0,0,0-.8-.384h-.16c-2.32.24-5.552.448-7.584.48a.6.6,0,0,0-.544.656v.032a.645.645,0,0,0,.64.656,57.939,57.939,0,0,0,6.72-.592c-.928.768-2.272,1.984-3.6,3.168-1.664,1.52-3.328,3.056-4.5,4.144a.786.786,0,0,0-.272.592.694.694,0,0,0,.208.48.631.631,0,0,0,.48.208A.848.848,0,0,0,8.344.08c.768-.72,1.632-1.568,2.384-2.272a5.056,5.056,0,0,1,3.072-1.6c.544,0,.848.24.912,1.44C14.824-.192,15.4.464,17.368.464A7.672,7.672,0,0,0,20.392-.16a.693.693,0,0,0,.432-.656.742.742,0,0,0-.064-.3A.594.594,0,0,0,20.2-1.5a.86.86,0,0,0-.336.08,5.787,5.787,0,0,1-2.4.608c-1.1,0-1.392-.3-1.488-1.936-.1-1.536-.576-2.064-1.584-2.064a3.13,3.13,0,0,0-1.648.5Zm16-6.032c-.608.112-1.28.288-1.936.48-.48.144-.976.3-1.5.5-.256-.848-.544-1.7-.848-2.528a.592.592,0,0,0-.592-.448,1.076,1.076,0,0,0-.288.048.639.639,0,0,0-.5.576.936.936,0,0,0,.032.208c.32.88.64,1.728.912,2.576C23.016-8.72,22.12-8.368,21.3-8a.685.685,0,0,0-.416.624.628.628,0,0,0,.064.288.6.6,0,0,0,.56.4.763.763,0,0,0,.32-.064c.768-.336,1.632-.72,2.512-1.072.832,2.672,1.488,5.5,2.08,8.3a.624.624,0,0,0,.656.5A.984.984,0,0,0,27.288.96.626.626,0,0,0,27.8.352a1.235,1.235,0,0,0-.032-.24c-.608-2.8-1.344-5.648-2.192-8.384a13.855,13.855,0,0,1,1.568-.56,14.82,14.82,0,0,1,3.664-.656c1.744,0,2.672.992,2.672,2.384a2.31,2.31,0,0,1-2.608,2.256,4.7,4.7,0,0,1-2.032-.48.718.718,0,0,0-.3-.08.64.64,0,0,0-.576.384.693.693,0,0,0-.064.3.692.692,0,0,0,.384.608,5.814,5.814,0,0,0,2.752.608,3.5,3.5,0,0,0,3.792-3.648c0-2.048-1.344-3.552-3.968-3.552a6.354,6.354,0,0,0-.9.064l-.128-2a.591.591,0,0,0-.672-.576h-.048a.576.576,0,0,0-.624.576.2.2,0,0,0,.016.1ZM39.848-5.12a12.555,12.555,0,0,0,.672-1.456c.688-1.744,1.44-3.568,2.224-5.52a.889.889,0,0,0,.064-.336.547.547,0,0,0-.432-.56.906.906,0,0,0-.288-.048.638.638,0,0,0-.608.464c-1.488,3.744-3.12,8.112-4.544,12.1a.836.836,0,0,0-.064.336.6.6,0,0,0,.48.608.888.888,0,0,0,.272.048c.272,0,.464-.16.608-.512a20.565,20.565,0,0,1,1.84-3.968,3.771,3.771,0,0,1,2.9-1.968.826.826,0,0,1,.864.56A6.57,6.57,0,0,1,44.1-3.12c.048,1.6.288,2.336.688,2.8a2.432,2.432,0,0,0,1.952.736,2.985,2.985,0,0,0,2.5-1.184,7.191,7.191,0,0,0,1.36-3.52.544.544,0,0,0,.016-.16.618.618,0,0,0-.544-.656.544.544,0,0,0-.16-.016.613.613,0,0,0-.624.576,6.735,6.735,0,0,1-.976,2.784,1.768,1.768,0,0,1-1.472.784,1.33,1.33,0,0,1-1.056-.416c-.208-.288-.32-.8-.368-2.24a5.523,5.523,0,0,0-.48-2.7,1.714,1.714,0,0,0-1.6-.864A4.31,4.31,0,0,0,39.96-5.088ZM54.664-3.488c0,.368.3.544.64.544a.582.582,0,0,0,.64-.544l.224-8.192c.016-.448-.336-.736-.848-.736-.528,0-.88.288-.88.736Zm.64,1.52a1.058,1.058,0,0,0-1.1,1.1A1.058,1.058,0,0,0,55.3.24a1.076,1.076,0,0,0,1.1-1.1A1.076,1.076,0,0,0,55.3-1.968Z" transform="translate(71.112 26)" fill="#f6aa00"/>
  </g>
</svg>
