<svg xmlns="http://www.w3.org/2000/svg" xmlns:xlink="http://www.w3.org/1999/xlink" width="50" height="47.417" viewBox="0 0 50 47.417">
  <defs>
    <clipPath id="clip-path">
      <rect id="長方形_98" data-name="長方形 98" width="50" height="47.417" fill="none"/>
    </clipPath>
  </defs>
  <g id="グループ_368" data-name="グループ 368" transform="translate(-169 -229)">
    <rect id="ボタンの左右中央揃えガイド" width="37.95" height="46.54" transform="translate(169 229)" fill="none"/>
    <g id="グループ_363" data-name="グループ 363" transform="translate(169 229)" clip-path="url(#clip-path)">
      <path id="パス_124" data-name="パス 124" d="M289.686,12.474V27.729l2.631-2.631V12.474a3.515,3.515,0,0,0-3.506-3.513h-6.9v2.631h6.9a.88.88,0,0,1,.875.881" transform="translate(-254.38 -8.086)" fill="#4b4b4b"/>
      <path id="パス_125" data-name="パス 125" d="M37.938,40.882V40.86l-2.631,2.631V52a.879.879,0,0,1-.875.875H3.513A.88.88,0,0,1,2.631,52V12.474a.881.881,0,0,1,.882-.881h6.9V8.961h-6.9A3.52,3.52,0,0,0,0,12.474V52A3.515,3.515,0,0,0,3.513,55.5H34.431A3.509,3.509,0,0,0,37.938,52V45.48l.011-4.609Z" transform="translate(0 -8.086)" fill="#4b4b4b"/>
      <path id="パス_126" data-name="パス 126" d="M134.466,4.388h10.072a.9.9,0,0,0,.895-.881V.875A.9.9,0,0,0,144.538,0H134.466a.891.891,0,0,0-.888.875V3.507a.891.891,0,0,0,.888.881" transform="translate(-120.533)" fill="#4b4b4b"/>
      <path id="パス_127" data-name="パス 127" d="M86.287,131.736l.011-1.375-.011.011v-.022l-.658.665-.658.658v1.993a.334.334,0,0,1-.329.329H80.458a.33.33,0,0,1-.329-.329v-1.927l-.658-.658-.38-.38-.262-.278v.016l-.016-.016v3.243a1.645,1.645,0,0,0,1.645,1.645h4.184a1.645,1.645,0,0,0,1.645-1.645v-1.93Z" transform="translate(-71.117 -117.62)" fill="#4b4b4b"/>
      <path id="パス_128" data-name="パス 128" d="M99.336,105.169l.651.658h.914l.658-.658.377-.381.274-.262h-.016l.016-.016h-2.065L98.7,104.5l.011.011h-.022Z" transform="translate(-89.047 -94.295)" fill="#4b4b4b"/>
      <path id="パス_129" data-name="パス 129" d="M86.286,210.673a1.645,1.645,0,0,0-1.645-1.644H80.458a1.645,1.645,0,0,0-1.645,1.644v4.184a1.645,1.645,0,0,0,1.645,1.645h4.184a1.645,1.645,0,0,0,1.645-1.645Zm-6.157,0a.326.326,0,0,1,.329-.329h4.184a.33.33,0,0,1,.329.329v4.184a.334.334,0,0,1-.329.329H80.458a.33.33,0,0,1-.329-.329Z" transform="translate(-71.116 -188.616)" fill="#4b4b4b"/>
      <path id="パス_130" data-name="パス 130" d="M84.641,313.442H80.458a1.645,1.645,0,0,0-1.645,1.645v4.184a1.645,1.645,0,0,0,1.645,1.645h4.184a1.645,1.645,0,0,0,1.645-1.645v-4.184a1.645,1.645,0,0,0-1.645-1.645m-4.513,1.645a.326.326,0,0,1,.329-.329h4.184a.33.33,0,0,1,.329.329v4.184a.334.334,0,0,1-.329.329H80.458a.33.33,0,0,1-.329-.329Z" transform="translate(-71.116 -282.832)" fill="#4b4b4b"/>
      <rect id="長方形_96" data-name="長方形 96" width="11.433" height="1.441" transform="translate(18.663 11.387)" fill="#4b4b4b"/>
      <rect id="長方形_97" data-name="長方形 97" width="7.19" height="1.44" transform="translate(18.663 14.867)" fill="#4b4b4b"/>
      <path id="パス_131" data-name="パス 131" d="M202.539,221.016H191.106v1.44h11.433Z" transform="translate(-172.443 -199.432)" fill="#4b4b4b"/>
      <path id="パス_132" data-name="パス 132" d="M198.3,256.653h-7.19v1.441h7.19Z" transform="translate(-172.443 -231.589)" fill="#4b4b4b"/>
      <path id="パス_133" data-name="パス 133" d="M191.155,325.431h-.049v1.441H196.1l.346-1.1.108-.327h0l0-.016Z" transform="translate(-172.443 -293.651)" fill="#4b4b4b"/>
      <path id="パス_134" data-name="パス 134" d="M191.148,361.064h-.042v1.44h3.908l.343-1.1.1-.322h0l0-.016Z" transform="translate(-172.443 -325.804)" fill="#4b4b4b"/>
      <path id="パス_135" data-name="パス 135" d="M83.65,90.6l-1.434,1.441-.579.586-.651.658L79.6,94.681l-1.381-1.395-.658-.658L77,92.063l-.086-.086v0h0l-.011-.011-.283.29-.026.02a1.608,1.608,0,0,0-.395.394l-.019.026-.6.592.316.329.151.158.507.507.658.664,2.118,2.125a.379.379,0,0,0,.27.112.357.357,0,0,0,.27-.112l2.184-2.2.658-.658.658-.658v-.007l1.612-1.618Z" transform="translate(-68.197 -81.754)" fill="#4b4b4b"/>
      <path id="パス_136" data-name="パス 136" d="M270.342,135.769l-4.243-4.237a.878.878,0,0,0-1.138.066l-6.4,6.4-2.631,2.631-9.236,9.236-.138.441-.447,1.441-.638,2.039-.454,1.44-.5,1.605a.512.512,0,0,0-.006.224.277.277,0,0,0,.033.1v.007a.509.509,0,0,0,.079.125h.006a.329.329,0,0,0,.086.079.139.139,0,0,0,.033.026.411.411,0,0,0,.092.046.158.158,0,0,0,.053.013.26.26,0,0,0,.1.02H245c.02,0,.046-.006.066-.006a.314.314,0,0,0,.079-.013l6.966-2.171,3.815-3.816,2.631-2.631,11.821-11.821a.712.712,0,0,0,.092-.105.9.9,0,0,0-.131-1.145m-17.62,17.083-.333-1.1,3.539-3.539,2.631-2.631,9.9-9.9.723.724L258.56,147.031l-.539.539-2.092,2.086-2.18,2.18Zm-5.142,2.508a1.726,1.726,0,0,0-.388-.572,1.637,1.637,0,0,0-.573-.388l.829-2.651.375-1.2.237-.237.467-.467,1.546.467.132.04v1.572h1.565l.441,1.454-.783.783Zm20.426-20.13-9.447,9.447-2.631,2.631-3.967,3.967h-1.118v-1.112l5.085-5.085,2.631-2.631,8.335-8.328Zm-9.447,6.315-2.631,2.625-5.559,5.559-.816-.243-.263-.086-.088-.024-.026-.012,3.778-3.785,2.974-2.974,2.631-2.631,3.493-3.486,3.6-3.605.783.783Z" transform="translate(-220.622 -118.526)" fill="#4b4b4b"/>
    </g>
  </g>
</svg>
