<svg xmlns="http://www.w3.org/2000/svg" width="72.261" height="119.998" viewBox="0 0 72.261 119.998">
  <path id="icon_メンテナンス" d="M5645.841,16605a8.966,8.966,0,0,1-8.972-8.967v-102.92a8.1,8.1,0,0,1,8.093-8.111h56.059a8.1,8.1,0,0,1,8.11,8.111v102.92a8.967,8.967,0,0,1-8.985,8.967Zm20.861-12.648a6.3,6.3,0,1,0,6.289-6.025A6.289,6.289,0,0,0,5666.7,16592.348Zm-19.324-12.756h51.241v-74.887h-51.241Zm16.645-83.121a1.68,1.68,0,0,0,1.679,1.668H5680.3a1.674,1.674,0,1,0,0-3.348H5665.7A1.678,1.678,0,0,0,5664.023,16496.471Zm7.313,69.523a1.288,1.288,0,0,1-1.284-1.18l-.663-4.584a.788.788,0,0,0-.467-.645l-3.583-1.48a.766.766,0,0,0-.788.125l-3.671,2.738a1.294,1.294,0,0,1-1.746-.066l-2.171-2.172a1.28,1.28,0,0,1-.062-1.742l2.734-3.68a.756.756,0,0,0,.125-.783l-1.488-3.584a.755.755,0,0,0-.642-.467l-4.584-.662a1.285,1.285,0,0,1-1.175-1.279v-3.066a1.274,1.274,0,0,1,1.183-1.279l4.576-.668a.75.75,0,0,0,.646-.471l1.479-3.576a.744.744,0,0,0-.121-.787l-2.738-3.68a1.29,1.29,0,0,1,.067-1.746l2.167-2.162a1.279,1.279,0,0,1,1.742-.07l3.68,2.74a.764.764,0,0,0,.784.121l3.588-1.482a.775.775,0,0,0,.467-.646l.663-4.58a1.29,1.29,0,0,1,1.284-1.184l3.067,0a1.286,1.286,0,0,1,1.28,1.184l.667,4.576a.747.747,0,0,0,.467.643l3.58,1.486a.762.762,0,0,0,.784-.121l3.68-2.736a1.286,1.286,0,0,1,1.746.066l2.163,2.166a1.281,1.281,0,0,1,.071,1.742l-2.738,3.68a.751.751,0,0,0-.129.779l1.492,3.584a.746.746,0,0,0,.642.475l4.576.664a1.28,1.28,0,0,1,1.184,1.279l0,3.063a1.3,1.3,0,0,1-1.188,1.283l-4.576.662a.769.769,0,0,0-.65.471l-1.479,3.576a.746.746,0,0,0,.129.787l2.733,3.68a1.293,1.293,0,0,1-.071,1.752l-2.171,2.162a1.283,1.283,0,0,1-1.738.066l-3.68-2.738a.76.76,0,0,0-.784-.129l-3.58,1.488a.748.748,0,0,0-.467.646l-.667,4.578a1.287,1.287,0,0,1-1.28,1.184Zm-4.613-27.141a8.686,8.686,0,1,0,6.147-2.547A8.588,8.588,0,0,0,5666.723,16538.854Z" transform="translate(-5636.869 -16484.998)" fill="#404040"/>
</svg>
