<svg id="icon_パスワード表示" xmlns="http://www.w3.org/2000/svg" width="21" height="14.755" viewBox="0 0 21 14.755">
  <path id="合体_45" data-name="合体 45" d="M8737.748,15571.483l-.191-.379a.491.491,0,0,1,0-.454l.191-.383a11.147,11.147,0,0,1,20.5,0l.2.383a.491.491,0,0,1,0,.454l-.2.379a11.145,11.145,0,0,1-20.5,0Zm.892-.758-.078.152.078.152a10.149,10.149,0,0,0,18.719,0l.078-.152-.078-.152a10.149,10.149,0,0,0-18.719,0Zm4.859.074a4.5,4.5,0,1,1,4.5,4.5A4.506,4.506,0,0,1,8743.5,15570.8Zm1,0a3.5,3.5,0,1,0,3.5-3.5A3.5,3.5,0,0,0,8744.5,15570.8Z" transform="translate(-8737.501 -15563.5)" fill="#212121"/>
</svg>
