<svg id="icon_パスワード非表示" xmlns="http://www.w3.org/2000/svg" width="21" height="17.263" viewBox="0 0 21 17.263">
  <path id="合体_47" data-name="合体 47" d="M7251.868,15436.824a.5.5,0,0,1,0-.709l2.925-2.925,2.58-2.58,4.936-4.936.709-.709,1.7-1.7.732-.732,2.685-2.685a.5.5,0,0,1,.705.709l-16.264,16.264a.5.5,0,0,1-.705,0Zm4.037-1.917.771-.771a9.32,9.32,0,0,0,3.324.616,10.751,10.751,0,0,0,9.36-6.226l.077-.151-.077-.151a12.163,12.163,0,0,0-2.976-3.793l.709-.709a13.218,13.218,0,0,1,3.158,4.045l.193.38a.5.5,0,0,1,0,.457l-.193.38a11.754,11.754,0,0,1-10.251,6.771A10.41,10.41,0,0,1,7255.9,15434.907Zm-6.156-5.924-.194-.38a.5.5,0,0,1,0-.457l.194-.38A11.744,11.744,0,0,1,7260,15421a10.417,10.417,0,0,1,4.525,1.046l-.755.755a9.444,9.444,0,0,0-3.77-.794,10.743,10.743,0,0,0-9.36,6.222l-.082.151.082.151a12.135,12.135,0,0,0,3.324,4.075l-.713.713A13.254,13.254,0,0,1,7249.749,15428.983Zm8.585,3.494.79-.79a3.5,3.5,0,0,0,4.374-3.39,3.444,3.444,0,0,0-.112-.872l.791-.79a4.436,4.436,0,0,1,.321,1.662,4.5,4.5,0,0,1-4.5,4.5A4.459,4.459,0,0,1,7258.334,15432.478Zm-2.263-1.987a4.5,4.5,0,0,1,6.121-6.117l-.744.744a3.439,3.439,0,0,0-1.449-.318,3.5,3.5,0,0,0-3.185,4.951l-.744.74v0Z" transform="translate(-7249.5 -15419.707)" fill="#212121"/>
</svg>
