<?xml version="1.0" encoding="UTF-8" standalone="no"?>
<!-- Created with Inkscape (http://www.inkscape.org/) -->

<svg
   xmlns:svg="http://www.w3.org/2000/svg"
   xmlns="http://www.w3.org/2000/svg"
   version="1.0"
   width="300"
   height="310"
   id="svg2">
  <path
     d="m 150,15.21875 c -18.125,9.375 -20.5,23.5 -20.5,23.5 0,0 -7.20309,-12.5267 -27.28125,-15.0625 -13.66242,14.83171 -11.30798,28.7047 -11.25,29.03125 -0.18371,-0.15296 -11.21189,-9.22798 -30.78125,-4.78125 -7.75185,18.5768 -0.80694,30.79646 -0.625,31.125 l 0.03125,0.0625 -0.0625,-0.03125 C 59.18139,78.94491 45.7864,74.27487 29,85.09375 c -0.90681,19.59136 9.14519,28.69008 9.9375,29.375 l 0.1875,0.15625 -0.21875,-0.0312 c -0.97388,0.0189 -14.7321,0.54786 -26.53125,16.09375 5.7702,18.46934 18.07179,23.69195 19.34375,24.1875 l 0.1875,0.0937 -0.1875,0.0625 c -1.28115,0.50865 -13.6697,5.85546 -19.34375,24.1875 11.42063,14.96469 24.35489,15.98767 26.3125,16.0625 l 0.40625,0 -0.3125,0.28125 c -1.42178,1.30104 -10.72735,10.55702 -9.8125,29.25 15.68401,10.0497 28.11908,6.77576 30.1875,6.125 l 0.375,-0.0937 -0.15625,0.34375 c -0.96466,1.87258 -6.37693,13.71107 0.8125,30.8125 17.84027,4.00418 28.36237,-2.99156 30.375,-4.5 l 0.40625,-0.3125 -0.0625,0.5 c -0.28637,2.47012 -1.0439,15.21969 11.3125,28.5625 17.88134,-2.30646 25.44197,-12.26544 26.96875,-14.5625 l 0.3125,-0.5 0.15625,0.5625 c 0.64988,2.6429 4.38199,14.73493 20.34375,22.9375 16.07723,-8.3158 19.74754,-20.32011 20.375,-22.9375 l 0.0937,-0.53125 0.3125,0.46875 c 1.52509,2.29499 9.11584,12.25567 27,14.5625 12.36427,-13.35129 11.56716,-26.10403 11.28125,-28.5625 l -0.0625,-0.5 0.40625,0.28125 c 1.87245,1.41872 12.40295,8.57202 30.40625,4.53125 7.18174,-17.0831 1.78579,-28.92036 0.8125,-30.8125 l -0.1875,-0.34375 0.40625,0.0937 c 2.06843,0.65076 14.50349,3.9247 30.1875,-6.125 0.91923,-18.78242 -8.49245,-28.02011 -9.84375,-29.25 l -0.3125,-0.25 0.40625,-0.0312 c 1.82562,-0.063 14.84959,-1.00147 26.34375,-16.0625 -5.67406,-18.33204 -18.0626,-23.67885 -19.34375,-24.1875 l -0.1875,-0.0625 0.1875,-0.0937 c 1.27198,-0.49555 13.5423,-5.71816 19.3125,-24.1875 -11.79915,-15.54589 -25.52612,-16.07484 -26.5,-16.09375 l -0.1875,0 0.15625,-0.125 c 0.7923,-0.68492 10.84431,-9.78364 9.9375,-29.375 -16.77507,-10.81158 -30.16396,-6.1549 -30.53125,-6.03125 l -0.0625,0.03125 0.0312,-0.0625 c 0.18196,-0.32854 7.12685,-12.5482 -0.625,-31.125 C 220.07793,43.42219 209,52.71875 209,52.71875 209.0295,52.55582 211.52609,38.57744 197.78125,23.65625 177.70308,26.19205 170.5,38.71875 170.5,38.71875 c 0,0 -2.5,-14.25 -20.5,-23.5 z M 153.125,47.25 a 108.25,108.25 0 0 1 105.125,108.21875 108.25,108.25 0 0 1 -216.5,0 A 108.25,108.25 0 0 1 153.125,47.25 z M 118,53.875 c -1.42438,0.44864 -2.82085,0.93126 -4.21875,1.4375 l 15.125,15.125 c -0.0486,-0.44368 0.011,-0.90321 0.25,-1.3125 0,0 0.61365,-0.93203 1.84375,-2.25 l -13,-13 z m 65.03125,0.34375 -12.25,12.25 c 1.39848,1.51026 2.0625,2.6875 2.0625,2.6875 0.20287,0.35109 0.28988,0.74382 0.28125,1.125 L 187.59375,55.8125 c -1.50432,-0.5684 -3.02665,-1.09245 -4.5625,-1.59375 z M 151,60.71875 c -14.26645,0 -20,9.5 -20,9.5 0,0 10,8.48354 10,17 l 0,47.8125 c 39.45343,0 49.00001,-22.8125 49,-22.8125 8.91544,19.61397 26.03124,37.03125 26.03125,37.03125 -23.40303,2.22886 -36.50001,-10.0625 -36.5,-10.0625 L 166,145.21875 l 6,18.03125 5.96875,-2 c 0,0 17.93496,9.96874 38,9.96875 23.64339,0 35.03126,-16.49999 35.03125,-16.5 -25.63189,-15.37914 -46.5,-53.15749 -46.5,-65 0,0 -1.99724,-12.5 -12.25,-12.5 -12.30928,0 -13.28126,12.03125 -13.28125,12.03125 0,0 -3.80595,20.96875 -18.96875,20.96875 l 0,-23 c 0,-8.91823 11,-17 11,-17 0,0 -5.49699,-9.5 -20,-9.5 z m -0.0625,6.09375 c 2.76001,0 5,2.24 5,5 1e-5,2.76 -2.24,5 -5,5 -2.75999,0 -5,-2.24 -5,-5 1e-5,-2.76 2.24,-5 5,-5 z m -47.78125,10.375 C 88.29325,78.3851 86,97.21875 86,97.21875 c -3,21.5 -6.12213,55.375 -32.5,58.125 0,0 6.37296,18.875 31.4375,18.875 21.79401,0 28.0625,-13 28.0625,-13 l 12.5,8.96875 c 0,0 11.5,-19.58192 11.5,-36.09375 l 0,-20.875 c -23.38703,0 -21.0625,-21 -21.0625,-21 0,0 0.35862,-15.03125 -12.78125,-15.03125 z m 59,20.84375 0,5.6875 3.0625,3.0625 c 1.28417,-0.56008 2.43021,-1.33342 3.46875,-2.21875 l -6.53125,-6.53125 z m -23.3125,0.40625 -11.125,11.125 c 1.4128,0.54704 3.0409,0.96686 4.9375,1.21875 l 6.1875,-6.1875 0,-6.15625 z m -84.375,9.96875 c -0.62979,1.27535 -1.23292,2.57148 -1.8125,3.875 l 22.8125,22.78125 c 0.36327,-0.82553 0.72897,-1.66986 1.0625,-2.53125 0.19031,-0.4915 0.38279,-0.99906 0.5625,-1.5 l -22.625,-22.625 z m 191.625,1.21875 -19.46875,19.46875 c 0.89011,1.1425 1.81783,2.28651 2.75,3.40625 l 18.65625,-18.65625 c -0.60565,-1.4233 -1.27245,-2.82797 -1.9375,-4.21875 z M 104.25,117.90625 c 7.1875,8.0625 25.625,16.1875 25.625,16.1875 -2.125,13.0625 -4.9375,16.0625 -4.9375,16.0625 0,0 -6.125,-4.8125 -12.4375,-13 -13.37634,18.5625 -21.5625,16.0625 -21.5625,16.0625 0,0 10.9375,-19.0625 13.3125,-35.3125 z m 36.625,20.28125 c -7.5,47.5 -35.65625,59.53125 -51.90625,73.53125 0,0 17.78125,21 48.03125,25.5 0,0 10.25,-17 14,-30 2.33532,12.53181 13,30 13,30 28,-2.5 49,-26 49,-26 -16,-11.75 -47.03125,-28.73009 -52.03125,-73 L 140.875,138.1875 z m -28.75,27.875 c -0.77064,0.8646 -1.75098,1.78307 -2.9375,2.75 l 11.90625,11.875 c 0.83228,-1.02867 1.64194,-2.09436 2.4375,-3.1875 L 112.125,166.0625 z m 75.625,1.90625 -9.71875,9.71875 c 0.86865,1.20002 1.77946,2.34577 2.6875,3.46875 l 11.625,-11.625 c -1.6356,-0.51322 -3.18239,-1.03895 -4.59375,-1.5625 z m 46.28125,1.9375 c -1.32084,0.53608 -2.72576,1.06374 -4.1875,1.5 l 20.3125,20.3125 c 0.50998,-1.40698 0.98589,-2.81619 1.4375,-4.25 l -17.5625,-17.5625 z m -168.5,1.84375 -16.75,16.75 c 0.5046,1.54548 1.02121,3.08021 1.59375,4.59375 L 69.75,173.6875 c -1.50528,-0.58603 -2.92932,-1.22474 -4.21875,-1.9375 z m 55,63.4375 -16.375,16.375 c 1.39078,0.66505 2.79545,1.33185 4.21875,1.9375 l 16.78125,-16.78125 c -1.58388,-0.48243 -3.13114,-0.97764 -4.625,-1.53125 z m 60.8125,0.0937 c -1.37029,0.52171 -2.78803,1.02471 -4.21875,1.46875 l 16.0625,16.0625 c 1.295,-0.57578 2.57656,-1.18716 3.84375,-1.8125 l -15.6875,-15.71875 z"
     id="path2423"
     style="fill:#0077c0;stroke:none" />
</svg>
