<svg id="tap_face" xmlns="http://www.w3.org/2000/svg" width="51.002" height="51" viewBox="0 0 51.002 51">
  <path id="tap_face-2" data-name="tap_face" d="M21734.572,23265.443a25.543,25.543,0,1,1,9.928,2A25.428,25.428,0,0,1,21734.572,23265.443Zm1.168-44.234a22.631,22.631,0,1,0,8.76-1.764A22.39,22.39,0,0,0,21735.74,23221.209Zm8.76,37.238h-.012a12.232,12.232,0,0,1-11.93-9.922,3,3,0,0,1,2.352-3.521l.018-.006a3.216,3.216,0,0,1,.572-.053h18a3,3,0,0,1,3,3,2.848,2.848,0,0,1-.059.584,12.225,12.225,0,0,1-11.93,9.916Zm-5.834-5.133a9.158,9.158,0,0,0,14.832-5.361v-.006h-18l.006.006h-.006A9.3,9.3,0,0,0,21738.666,23253.314Zm11.836-16.619a2.248,2.248,0,1,1,2.248,2.248A2.25,2.25,0,0,1,21750.5,23236.7Zm-16.5,0a2.251,2.251,0,1,1,2.248,2.248A2.254,2.254,0,0,1,21734,23236.7Z" transform="translate(-21718.998 -23216.445)" fill="#ed64a6"/>
</svg>
