<svg xmlns="http://www.w3.org/2000/svg" width="51.002" height="51.002" viewBox="0 0 51.002 51.002">
  <g id="tap_face" transform="translate(-3502.5 -7678.5)">
    <path id="パス_143" data-name="パス 143" d="M24,48A24,24,0,1,1,48,24,24,24,0,0,1,24,48" transform="translate(3504 7680)" fill="none" stroke="#cecece" stroke-width="3"/>
    <path id="パス_144" data-name="パス 144" d="M19.5,29.5A10.735,10.735,0,0,1,9.03,20.794a1.5,1.5,0,0,1,1.176-1.766A1.6,1.6,0,0,1,10.5,19h18A1.5,1.5,0,0,1,30,20.5a1.481,1.481,0,0,1-.03.294A10.735,10.735,0,0,1,19.5,29.5" transform="translate(3508.5 7689.501)" fill="none" stroke="#cecece" stroke-width="3"/>
    <path id="パス_145" data-name="パス 145" d="M22.25,12A2.25,2.25,0,1,1,20,14.25,2.251,2.251,0,0,1,22.25,12" transform="translate(3514 7684.5)" fill="#cecece" stroke="rgba(0,0,0,0)" stroke-width="1"/>
    <path id="パス_146" data-name="パス 146" d="M11.25,12A2.25,2.25,0,1,1,9,14.25,2.251,2.251,0,0,1,11.25,12" transform="translate(3508.5 7684.5)" fill="#cecece" stroke="rgba(0,0,0,0)" stroke-width="1"/>
  </g>
</svg>
