<svg id="tap_clover_active" xmlns="http://www.w3.org/2000/svg" width="48.854" height="50.08" viewBox="0 0 48.854 50.08">
  <path id="tap_clover" d="M17807.389,15594.969a1.5,1.5,0,0,1,.436-2.971,17.19,17.19,0,0,0,4.91-.215,18.482,18.482,0,0,0,4.67-1.466,17.716,17.716,0,0,0,4.715-3.222,9.543,9.543,0,0,1-.723-3.661,8.847,8.847,0,0,1,1.471-4.427,26.556,26.556,0,0,1,2.934-3.93,47.556,47.556,0,0,1,4.182-4.172l.977-.838.982.838c.035.035.971.842,2.213,2.083a37.076,37.076,0,0,1,4.027,4.674c1.578,2.236,2.344,4.123,2.344,5.771a9.565,9.565,0,0,1-16.328,6.762q-.243-.243-.469-.5a20.813,20.813,0,0,1-5.129,3.38,22.276,22.276,0,0,1-9.207,2.008A15,15,0,0,1,17807.389,15594.969Zm20.645-17.884c-3.168,3.6-3.639,5.521-3.639,6.35a6.566,6.566,0,0,0,13.133,0c0-1.774-2.057-4.884-5.492-8.325-.4-.4-.768-.749-1.076-1.04C17830.207,15574.777,17829.113,15575.853,17828.033,15577.085Zm11.592-.864a36.853,36.853,0,0,1-4.678-4.024c-1.242-1.245-2.049-2.178-2.08-2.218l-.842-.977.842-.978a46.821,46.821,0,0,1,4.168-4.181,26.473,26.473,0,0,1,3.934-2.939,8.826,8.826,0,0,1,4.424-1.47,9.567,9.567,0,0,1,0,19.134C17843.748,15578.568,17841.861,15577.8,17839.625,15576.221Zm-.605-10.127c-1.223,1.075-2.289,2.159-2.988,2.908.287.309.641.672,1.039,1.07,3.438,3.441,6.553,5.494,8.322,5.494a6.567,6.567,0,0,0,0-13.134C17844.563,15562.433,17842.637,15562.907,17839.02,15566.094Zm-29.256,9.674a9.567,9.567,0,0,1,6.768-16.333c1.645,0,3.529.767,5.766,2.344a36.417,36.417,0,0,1,4.674,4.028c1.246,1.241,2.053,2.178,2.084,2.218l.838.978-.838.977a47.622,47.622,0,0,1-4.172,4.181,26.735,26.735,0,0,1-3.93,2.939,8.849,8.849,0,0,1-4.422,1.47A9.522,9.522,0,0,1,17809.764,15575.768Zm2.125-11.408a6.565,6.565,0,0,0,4.643,11.207c.828,0,2.754-.476,6.371-3.656,1.223-1.08,2.285-2.16,2.988-2.908-.291-.31-.641-.677-1.039-1.071-3.441-3.441-6.551-5.5-8.32-5.5A6.508,6.508,0,0,0,17811.889,15564.359Zm18.094,2.733c-.041-.031-.973-.838-2.213-2.079a37.1,37.1,0,0,1-4.029-4.674c-1.578-2.236-2.344-4.123-2.344-5.771a9.564,9.564,0,0,1,19.129,0,8.818,8.818,0,0,1-1.469,4.423,26.394,26.394,0,0,1-2.936,3.934,46.691,46.691,0,0,1-4.18,4.168l-.982.842Zm-3.666-17.167a6.542,6.542,0,0,0-1.922,4.643c0,1.774,2.057,4.884,5.494,8.325.4.395.766.749,1.07,1.04.758-.708,1.852-1.783,2.932-3.016,3.162-3.6,3.637-5.521,3.637-6.35a6.568,6.568,0,0,0-11.211-4.643Z" transform="translate(-17806.105 -15545.001)" fill="#ed64a6"/>
</svg>
